solid OpenSCAD_Model
  facet normal 0.951056 0.309018 0
    outer loop
      vertex 13 117 20
      vertex 12.4271 118.763 3
      vertex 12.4271 118.763 20
    endloop
  endfacet
  facet normal 0.951056 0.309018 0
    outer loop
      vertex 12.4271 118.763 3
      vertex 13 117 20
      vertex 13 117 3
    endloop
  endfacet
  facet normal -0.951057 -0.309016 0
    outer loop
      vertex 7.57295 115.237 3
      vertex 7 117 20
      vertex 7 117 3
    endloop
  endfacet
  facet normal -0.951057 -0.309016 0
    outer loop
      vertex 7 117 20
      vertex 7.57295 115.237 3
      vertex 7.57295 115.237 20
    endloop
  endfacet
  facet normal 0 1 -0
    outer loop
      vertex 10.9271 119.853 3
      vertex 9.07295 119.853 20
      vertex 10.9271 119.853 20
    endloop
  endfacet
  facet normal 0 1 0
    outer loop
      vertex 9.07295 119.853 20
      vertex 10.9271 119.853 3
      vertex 9.07295 119.853 3
    endloop
  endfacet
  facet normal 0.587788 0.809015 -0
    outer loop
      vertex 12.4271 118.763 3
      vertex 10.9271 119.853 20
      vertex 12.4271 118.763 20
    endloop
  endfacet
  facet normal 0.587788 0.809015 0
    outer loop
      vertex 10.9271 119.853 20
      vertex 12.4271 118.763 3
      vertex 10.9271 119.853 3
    endloop
  endfacet
  facet normal -0.587788 0.809015 0
    outer loop
      vertex 9.07295 119.853 3
      vertex 7.57295 118.763 20
      vertex 9.07295 119.853 20
    endloop
  endfacet
  facet normal -0.587788 0.809015 0
    outer loop
      vertex 7.57295 118.763 20
      vertex 9.07295 119.853 3
      vertex 7.57295 118.763 3
    endloop
  endfacet
  facet normal 0.587785 -0.809017 0
    outer loop
      vertex 10.9271 114.147 3
      vertex 12.4271 115.237 20
      vertex 10.9271 114.147 20
    endloop
  endfacet
  facet normal 0.587785 -0.809017 0
    outer loop
      vertex 12.4271 115.237 20
      vertex 10.9271 114.147 3
      vertex 12.4271 115.237 3
    endloop
  endfacet
  facet normal -0.587785 -0.809017 0
    outer loop
      vertex 7.57295 115.237 3
      vertex 9.07295 114.147 20
      vertex 7.57295 115.237 20
    endloop
  endfacet
  facet normal -0.587785 -0.809017 -0
    outer loop
      vertex 9.07295 114.147 20
      vertex 7.57295 115.237 3
      vertex 9.07295 114.147 3
    endloop
  endfacet
  facet normal 0 0 -1
    outer loop
      vertex 0 0 0
      vertex 80 120 0
      vertex 80 0 0
    endloop
  endfacet
  facet normal -0 0 -1
    outer loop
      vertex 80 120 0
      vertex 0 0 0
      vertex 0 120 0
    endloop
  endfacet
  facet normal -0.951056 0.309017 0
    outer loop
      vertex 7 117 3
      vertex 7.57295 118.763 20
      vertex 7.57295 118.763 3
    endloop
  endfacet
  facet normal -0.951056 0.309017 0
    outer loop
      vertex 7.57295 118.763 20
      vertex 7 117 3
      vertex 7 117 20
    endloop
  endfacet
  facet normal 0 0 1
    outer loop
      vertex 12.4271 118.763 20
      vertex 12.4271 115.237 20
      vertex 13 117 20
    endloop
  endfacet
  facet normal 0 0 1
    outer loop
      vertex 10.9271 119.853 20
      vertex 12.4271 115.237 20
      vertex 12.4271 118.763 20
    endloop
  endfacet
  facet normal 0 0 1
    outer loop
      vertex 10.9271 119.853 20
      vertex 10.9271 114.147 20
      vertex 12.4271 115.237 20
    endloop
  endfacet
  facet normal -0 0 1
    outer loop
      vertex 9.07295 119.853 20
      vertex 10.9271 114.147 20
      vertex 10.9271 119.853 20
    endloop
  endfacet
  facet normal 0 0 1
    outer loop
      vertex 9.07295 119.853 20
      vertex 9.07295 114.147 20
      vertex 10.9271 114.147 20
    endloop
  endfacet
  facet normal -0 0 1
    outer loop
      vertex 7.57295 118.763 20
      vertex 9.07295 114.147 20
      vertex 9.07295 119.853 20
    endloop
  endfacet
  facet normal 0 0 1
    outer loop
      vertex 7.57295 118.763 20
      vertex 7.57295 115.237 20
      vertex 9.07295 114.147 20
    endloop
  endfacet
  facet normal 0 -0 1
    outer loop
      vertex 7.57295 115.237 20
      vertex 7.57295 118.763 20
      vertex 7 117 20
    endloop
  endfacet
  facet normal 0.951057 -0.309017 0
    outer loop
      vertex 12.4271 115.237 20
      vertex 13 117 3
      vertex 13 117 20
    endloop
  endfacet
  facet normal 0.951057 -0.309017 0
    outer loop
      vertex 13 117 3
      vertex 12.4271 115.237 20
      vertex 12.4271 115.237 3
    endloop
  endfacet
  facet normal 0 -1 0
    outer loop
      vertex 9.07295 114.147 3
      vertex 10.9271 114.147 20
      vertex 9.07295 114.147 20
    endloop
  endfacet
  facet normal 0 -1 -0
    outer loop
      vertex 10.9271 114.147 20
      vertex 9.07295 114.147 3
      vertex 10.9271 114.147 3
    endloop
  endfacet
  facet normal 0.951056 0.309019 0
    outer loop
      vertex 67 117 20
      vertex 66.427 118.763 3
      vertex 66.427 118.763 20
    endloop
  endfacet
  facet normal 0.951056 0.309019 0
    outer loop
      vertex 66.427 118.763 3
      vertex 67 117 20
      vertex 67 117 3
    endloop
  endfacet
  facet normal -0.951057 -0.309016 0
    outer loop
      vertex 61.5729 115.237 3
      vertex 61 117 20
      vertex 61 117 3
    endloop
  endfacet
  facet normal -0.951057 -0.309016 0
    outer loop
      vertex 61 117 20
      vertex 61.5729 115.237 3
      vertex 61.5729 115.237 20
    endloop
  endfacet
  facet normal 0 1 -0
    outer loop
      vertex 64.927 119.853 3
      vertex 63.0729 119.853 20
      vertex 64.927 119.853 20
    endloop
  endfacet
  facet normal 0 1 0
    outer loop
      vertex 63.0729 119.853 20
      vertex 64.927 119.853 3
      vertex 63.0729 119.853 3
    endloop
  endfacet
  facet normal 0.587788 0.809015 -0
    outer loop
      vertex 66.427 118.763 3
      vertex 64.927 119.853 20
      vertex 66.427 118.763 20
    endloop
  endfacet
  facet normal 0.587788 0.809015 0
    outer loop
      vertex 64.927 119.853 20
      vertex 66.427 118.763 3
      vertex 64.927 119.853 3
    endloop
  endfacet
  facet normal -0.587788 0.809015 0
    outer loop
      vertex 63.0729 119.853 3
      vertex 61.5729 118.763 20
      vertex 63.0729 119.853 20
    endloop
  endfacet
  facet normal -0.587788 0.809015 0
    outer loop
      vertex 61.5729 118.763 20
      vertex 63.0729 119.853 3
      vertex 61.5729 118.763 3
    endloop
  endfacet
  facet normal 0.587785 -0.809017 0
    outer loop
      vertex 64.927 114.147 3
      vertex 66.427 115.237 20
      vertex 64.927 114.147 20
    endloop
  endfacet
  facet normal 0.587785 -0.809017 0
    outer loop
      vertex 66.427 115.237 20
      vertex 64.927 114.147 3
      vertex 66.427 115.237 3
    endloop
  endfacet
  facet normal -0.587785 -0.809017 0
    outer loop
      vertex 61.5729 115.237 3
      vertex 63.0729 114.147 20
      vertex 61.5729 115.237 20
    endloop
  endfacet
  facet normal -0.587785 -0.809017 -0
    outer loop
      vertex 63.0729 114.147 20
      vertex 61.5729 115.237 3
      vertex 63.0729 114.147 3
    endloop
  endfacet
  facet normal -0.951056 0.309017 0
    outer loop
      vertex 61 117 3
      vertex 61.5729 118.763 20
      vertex 61.5729 118.763 3
    endloop
  endfacet
  facet normal -0.951056 0.309017 0
    outer loop
      vertex 61.5729 118.763 20
      vertex 61 117 3
      vertex 61 117 20
    endloop
  endfacet
  facet normal 0 0 1
    outer loop
      vertex 66.427 118.763 20
      vertex 66.427 115.237 20
      vertex 67 117 20
    endloop
  endfacet
  facet normal 0 0 1
    outer loop
      vertex 64.927 119.853 20
      vertex 66.427 115.237 20
      vertex 66.427 118.763 20
    endloop
  endfacet
  facet normal 0 0 1
    outer loop
      vertex 64.927 119.853 20
      vertex 64.927 114.147 20
      vertex 66.427 115.237 20
    endloop
  endfacet
  facet normal -0 0 1
    outer loop
      vertex 63.0729 119.853 20
      vertex 64.927 114.147 20
      vertex 64.927 119.853 20
    endloop
  endfacet
  facet normal 0 0 1
    outer loop
      vertex 63.0729 119.853 20
      vertex 63.0729 114.147 20
      vertex 64.927 114.147 20
    endloop
  endfacet
  facet normal -0 0 1
    outer loop
      vertex 61.5729 118.763 20
      vertex 63.0729 114.147 20
      vertex 63.0729 119.853 20
    endloop
  endfacet
  facet normal 0 0 1
    outer loop
      vertex 61.5729 118.763 20
      vertex 61.5729 115.237 20
      vertex 63.0729 114.147 20
    endloop
  endfacet
  facet normal 0 -0 1
    outer loop
      vertex 61.5729 115.237 20
      vertex 61.5729 118.763 20
      vertex 61 117 20
    endloop
  endfacet
  facet normal 0.951056 -0.309018 0
    outer loop
      vertex 66.427 115.237 20
      vertex 67 117 3
      vertex 67 117 20
    endloop
  endfacet
  facet normal 0.951056 -0.309018 0
    outer loop
      vertex 67 117 3
      vertex 66.427 115.237 20
      vertex 66.427 115.237 3
    endloop
  endfacet
  facet normal 0 -1 0
    outer loop
      vertex 63.0729 114.147 3
      vertex 64.927 114.147 20
      vertex 63.0729 114.147 20
    endloop
  endfacet
  facet normal 0 -1 -0
    outer loop
      vertex 64.927 114.147 20
      vertex 63.0729 114.147 3
      vertex 64.927 114.147 3
    endloop
  endfacet
  facet normal 0.951056 0.309019 0
    outer loop
      vertex 67 83 20
      vertex 66.427 84.7634 3
      vertex 66.427 84.7634 20
    endloop
  endfacet
  facet normal 0.951056 0.309019 0
    outer loop
      vertex 66.427 84.7634 3
      vertex 67 83 20
      vertex 67 83 3
    endloop
  endfacet
  facet normal -0.951057 -0.309016 0
    outer loop
      vertex 61.5729 81.2366 3
      vertex 61 83 20
      vertex 61 83 3
    endloop
  endfacet
  facet normal -0.951057 -0.309016 0
    outer loop
      vertex 61 83 20
      vertex 61.5729 81.2366 3
      vertex 61.5729 81.2366 20
    endloop
  endfacet
  facet normal 0 1 -0
    outer loop
      vertex 64.927 85.8532 3
      vertex 63.0729 85.8532 20
      vertex 64.927 85.8532 20
    endloop
  endfacet
  facet normal 0 1 0
    outer loop
      vertex 63.0729 85.8532 20
      vertex 64.927 85.8532 3
      vertex 63.0729 85.8532 3
    endloop
  endfacet
  facet normal 0.587788 0.809015 -0
    outer loop
      vertex 66.427 84.7634 3
      vertex 64.927 85.8532 20
      vertex 66.427 84.7634 20
    endloop
  endfacet
  facet normal 0.587788 0.809015 0
    outer loop
      vertex 64.927 85.8532 20
      vertex 66.427 84.7634 3
      vertex 64.927 85.8532 3
    endloop
  endfacet
  facet normal -0.587788 0.809015 0
    outer loop
      vertex 63.0729 85.8532 3
      vertex 61.5729 84.7634 20
      vertex 63.0729 85.8532 20
    endloop
  endfacet
  facet normal -0.587788 0.809015 0
    outer loop
      vertex 61.5729 84.7634 20
      vertex 63.0729 85.8532 3
      vertex 61.5729 84.7634 3
    endloop
  endfacet
  facet normal 0.587785 -0.809017 0
    outer loop
      vertex 64.927 80.1468 3
      vertex 66.427 81.2366 20
      vertex 64.927 80.1468 20
    endloop
  endfacet
  facet normal 0.587785 -0.809017 0
    outer loop
      vertex 66.427 81.2366 20
      vertex 64.927 80.1468 3
      vertex 66.427 81.2366 3
    endloop
  endfacet
  facet normal -0.587785 -0.809017 0
    outer loop
      vertex 61.5729 81.2366 3
      vertex 63.0729 80.1468 20
      vertex 61.5729 81.2366 20
    endloop
  endfacet
  facet normal -0.587785 -0.809017 -0
    outer loop
      vertex 63.0729 80.1468 20
      vertex 61.5729 81.2366 3
      vertex 63.0729 80.1468 3
    endloop
  endfacet
  facet normal -0.951056 0.309017 0
    outer loop
      vertex 61 83 3
      vertex 61.5729 84.7634 20
      vertex 61.5729 84.7634 3
    endloop
  endfacet
  facet normal -0.951056 0.309017 0
    outer loop
      vertex 61.5729 84.7634 20
      vertex 61 83 3
      vertex 61 83 20
    endloop
  endfacet
  facet normal 0 0 1
    outer loop
      vertex 66.427 84.7634 20
      vertex 66.427 81.2366 20
      vertex 67 83 20
    endloop
  endfacet
  facet normal 0 0 1
    outer loop
      vertex 64.927 85.8532 20
      vertex 66.427 81.2366 20
      vertex 66.427 84.7634 20
    endloop
  endfacet
  facet normal 0 0 1
    outer loop
      vertex 64.927 85.8532 20
      vertex 64.927 80.1468 20
      vertex 66.427 81.2366 20
    endloop
  endfacet
  facet normal -0 0 1
    outer loop
      vertex 63.0729 85.8532 20
      vertex 64.927 80.1468 20
      vertex 64.927 85.8532 20
    endloop
  endfacet
  facet normal 0 0 1
    outer loop
      vertex 63.0729 85.8532 20
      vertex 63.0729 80.1468 20
      vertex 64.927 80.1468 20
    endloop
  endfacet
  facet normal -0 0 1
    outer loop
      vertex 61.5729 84.7634 20
      vertex 63.0729 80.1468 20
      vertex 63.0729 85.8532 20
    endloop
  endfacet
  facet normal 0 0 1
    outer loop
      vertex 61.5729 84.7634 20
      vertex 61.5729 81.2366 20
      vertex 63.0729 80.1468 20
    endloop
  endfacet
  facet normal 0 -0 1
    outer loop
      vertex 61.5729 81.2366 20
      vertex 61.5729 84.7634 20
      vertex 61 83 20
    endloop
  endfacet
  facet normal 0.951056 -0.309018 0
    outer loop
      vertex 66.427 81.2366 20
      vertex 67 83 3
      vertex 67 83 20
    endloop
  endfacet
  facet normal 0.951056 -0.309018 0
    outer loop
      vertex 67 83 3
      vertex 66.427 81.2366 20
      vertex 66.427 81.2366 3
    endloop
  endfacet
  facet normal 0 -1 0
    outer loop
      vertex 63.0729 80.1468 3
      vertex 64.927 80.1468 20
      vertex 63.0729 80.1468 20
    endloop
  endfacet
  facet normal 0 -1 -0
    outer loop
      vertex 64.927 80.1468 20
      vertex 63.0729 80.1468 3
      vertex 64.927 80.1468 3
    endloop
  endfacet
  facet normal 0.951056 0.309018 0
    outer loop
      vertex 13 83 20
      vertex 12.4271 84.7634 3
      vertex 12.4271 84.7634 20
    endloop
  endfacet
  facet normal 0.951056 0.309018 0
    outer loop
      vertex 12.4271 84.7634 3
      vertex 13 83 20
      vertex 13 83 3
    endloop
  endfacet
  facet normal 0 1 -0
    outer loop
      vertex 10.9271 85.8532 3
      vertex 9.07295 85.8532 20
      vertex 10.9271 85.8532 20
    endloop
  endfacet
  facet normal 0 1 0
    outer loop
      vertex 9.07295 85.8532 20
      vertex 10.9271 85.8532 3
      vertex 9.07295 85.8532 3
    endloop
  endfacet
  facet normal 0.587788 0.809015 -0
    outer loop
      vertex 12.4271 84.7634 3
      vertex 10.9271 85.8532 20
      vertex 12.4271 84.7634 20
    endloop
  endfacet
  facet normal 0.587788 0.809015 0
    outer loop
      vertex 10.9271 85.8532 20
      vertex 12.4271 84.7634 3
      vertex 10.9271 85.8532 3
    endloop
  endfacet
  facet normal -0.587788 0.809015 0
    outer loop
      vertex 9.07295 85.8532 3
      vertex 7.57295 84.7634 20
      vertex 9.07295 85.8532 20
    endloop
  endfacet
  facet normal -0.587788 0.809015 0
    outer loop
      vertex 7.57295 84.7634 20
      vertex 9.07295 85.8532 3
      vertex 7.57295 84.7634 3
    endloop
  endfacet
  facet normal 0.587785 -0.809017 0
    outer loop
      vertex 10.9271 80.1468 3
      vertex 12.4271 81.2366 20
      vertex 10.9271 80.1468 20
    endloop
  endfacet
  facet normal 0.587785 -0.809017 0
    outer loop
      vertex 12.4271 81.2366 20
      vertex 10.9271 80.1468 3
      vertex 12.4271 81.2366 3
    endloop
  endfacet
  facet normal -0.587785 -0.809017 0
    outer loop
      vertex 7.57295 81.2366 3
      vertex 9.07295 80.1468 20
      vertex 7.57295 81.2366 20
    endloop
  endfacet
  facet normal -0.587785 -0.809017 -0
    outer loop
      vertex 9.07295 80.1468 20
      vertex 7.57295 81.2366 3
      vertex 9.07295 80.1468 3
    endloop
  endfacet
  facet normal -0.951056 0.309017 0
    outer loop
      vertex 7 83 3
      vertex 7.57295 84.7634 20
      vertex 7.57295 84.7634 3
    endloop
  endfacet
  facet normal -0.951056 0.309017 0
    outer loop
      vertex 7.57295 84.7634 20
      vertex 7 83 3
      vertex 7 83 20
    endloop
  endfacet
  facet normal 0 0 1
    outer loop
      vertex 12.4271 84.7634 20
      vertex 12.4271 81.2366 20
      vertex 13 83 20
    endloop
  endfacet
  facet normal 0 0 1
    outer loop
      vertex 10.9271 85.8532 20
      vertex 12.4271 81.2366 20
      vertex 12.4271 84.7634 20
    endloop
  endfacet
  facet normal 0 0 1
    outer loop
      vertex 10.9271 85.8532 20
      vertex 10.9271 80.1468 20
      vertex 12.4271 81.2366 20
    endloop
  endfacet
  facet normal -0 0 1
    outer loop
      vertex 9.07295 85.8532 20
      vertex 10.9271 80.1468 20
      vertex 10.9271 85.8532 20
    endloop
  endfacet
  facet normal 0 0 1
    outer loop
      vertex 9.07295 85.8532 20
      vertex 9.07295 80.1468 20
      vertex 10.9271 80.1468 20
    endloop
  endfacet
  facet normal -0 0 1
    outer loop
      vertex 7.57295 84.7634 20
      vertex 9.07295 80.1468 20
      vertex 9.07295 85.8532 20
    endloop
  endfacet
  facet normal 0 0 1
    outer loop
      vertex 7.57295 84.7634 20
      vertex 7.57295 81.2366 20
      vertex 9.07295 80.1468 20
    endloop
  endfacet
  facet normal 0 -0 1
    outer loop
      vertex 7.57295 81.2366 20
      vertex 7.57295 84.7634 20
      vertex 7 83 20
    endloop
  endfacet
  facet normal 0 -1 0
    outer loop
      vertex 9.07295 80.1468 3
      vertex 10.9271 80.1468 20
      vertex 9.07295 80.1468 20
    endloop
  endfacet
  facet normal 0 -1 -0
    outer loop
      vertex 10.9271 80.1468 20
      vertex 9.07295 80.1468 3
      vertex 10.9271 80.1468 3
    endloop
  endfacet
  facet normal -0.951057 -0.309016 0
    outer loop
      vertex 7.57295 81.2366 3
      vertex 7 83 20
      vertex 7 83 3
    endloop
  endfacet
  facet normal -0.951057 -0.309016 0
    outer loop
      vertex 7 83 20
      vertex 7.57295 81.2366 3
      vertex 7.57295 81.2366 20
    endloop
  endfacet
  facet normal 0.951057 -0.309017 0
    outer loop
      vertex 12.4271 81.2366 20
      vertex 13 83 3
      vertex 13 83 20
    endloop
  endfacet
  facet normal 0.951057 -0.309017 0
    outer loop
      vertex 13 83 3
      vertex 12.4271 81.2366 20
      vertex 12.4271 81.2366 3
    endloop
  endfacet
  facet normal -1 0 0
    outer loop
      vertex 0 48.563 20
      vertex 0 38.5 20
      vertex 0 48.563 21.2021
    endloop
  endfacet
  facet normal -1 0 0
    outer loop
      vertex 0 81.5 20
      vertex 0 120 0
      vertex 0 81.5 18.5
    endloop
  endfacet
  facet normal -1 0 0
    outer loop
      vertex 0 70.404 10.6322
      vertex 0 81.5 18.5
      vertex 0 120 0
    endloop
  endfacet
  facet normal -1 -0 0
    outer loop
      vertex 0 81.5 18.5
      vertex 0 73.3148 15.6738
      vertex 0 73.9155 18.5
    endloop
  endfacet
  facet normal -1 0 0
    outer loop
      vertex 0 81.5 18.5
      vertex 0 72.1244 13
      vertex 0 73.3148 15.6738
    endloop
  endfacet
  facet normal -1 0 0
    outer loop
      vertex 0 81.5 18.5
      vertex 0 70.404 10.6322
      vertex 0 72.1244 13
    endloop
  endfacet
  facet normal -1 0 0
    outer loop
      vertex 0 120 0
      vertex 0 68.229 8.67376
      vertex 0 70.404 10.6322
    endloop
  endfacet
  facet normal -1 0 0
    outer loop
      vertex 0 120 0
      vertex 0 65.6943 7.21036
      vertex 0 68.229 8.67376
    endloop
  endfacet
  facet normal -1 0 0
    outer loop
      vertex 0 120 0
      vertex 0 62.9108 6.30593
      vertex 0 65.6943 7.21036
    endloop
  endfacet
  facet normal -1 0 0
    outer loop
      vertex 0 120 0
      vertex 0 60 6
      vertex 0 62.9108 6.30593
    endloop
  endfacet
  facet normal -1 0 0
    outer loop
      vertex 0 46.6852 15.6738
      vertex 0 38.5 18.5
      vertex 0 46.0845 18.5
    endloop
  endfacet
  facet normal -1 0 0
    outer loop
      vertex 0 47.8756 13
      vertex 0 38.5 18.5
      vertex 0 46.6852 15.6738
    endloop
  endfacet
  facet normal -1 0 0
    outer loop
      vertex 0 49.596 10.6322
      vertex 0 38.5 18.5
      vertex 0 47.8756 13
    endloop
  endfacet
  facet normal -1 0 0
    outer loop
      vertex 0 0 0
      vertex 0 49.596 10.6322
      vertex 0 51.771 8.67376
    endloop
  endfacet
  facet normal -1 -0 0
    outer loop
      vertex 0 38.5 18.5
      vertex 0 0 0
      vertex 0 38.5 20
    endloop
  endfacet
  facet normal -1 -0 0
    outer loop
      vertex 0 49.596 10.6322
      vertex 0 0 0
      vertex 0 38.5 18.5
    endloop
  endfacet
  facet normal -1 -0 0
    outer loop
      vertex 0 54.3057 7.21036
      vertex 0 0 0
      vertex 0 51.771 8.67376
    endloop
  endfacet
  facet normal -1 -0 0
    outer loop
      vertex 0 57.0892 6.30593
      vertex 0 0 0
      vertex 0 54.3057 7.21036
    endloop
  endfacet
  facet normal -1 -0 0
    outer loop
      vertex 0 60 6
      vertex 0 0 0
      vertex 0 57.0892 6.30593
    endloop
  endfacet
  facet normal -1 0 0
    outer loop
      vertex 0 0 0
      vertex 0 60 6
      vertex 0 120 0
    endloop
  endfacet
  facet normal -1 0 0
    outer loop
      vertex 0 120 0
      vertex 0 81.5 20
      vertex 0 120 40
    endloop
  endfacet
  facet normal -1 0 0
    outer loop
      vertex 0 71.437 21.2021
      vertex 0 81.5 20
      vertex 0 71.437 20
    endloop
  endfacet
  facet normal -1 0 0
    outer loop
      vertex 0 70.9371 23.5537
      vertex 0 81.5 20
      vertex 0 71.437 21.2021
    endloop
  endfacet
  facet normal -1 0 0
    outer loop
      vertex 0 69.9593 25.75
      vertex 0 81.5 20
      vertex 0 70.9371 23.5537
    endloop
  endfacet
  facet normal -1 0 0
    outer loop
      vertex 0 68.5462 27.695
      vertex 0 81.5 20
      vertex 0 69.9593 25.75
    endloop
  endfacet
  facet normal -1 0 0
    outer loop
      vertex 0 81.5 20
      vertex 0 68.5462 27.695
      vertex 0 120 40
    endloop
  endfacet
  facet normal -1 0 0
    outer loop
      vertex 0 66.7595 29.3037
      vertex 0 120 40
      vertex 0 68.5462 27.695
    endloop
  endfacet
  facet normal -1 0 0
    outer loop
      vertex 0 64.6775 30.5058
      vertex 0 120 40
      vertex 0 66.7595 29.3037
    endloop
  endfacet
  facet normal -1 0 0
    outer loop
      vertex 0 62.391 31.2487
      vertex 0 120 40
      vertex 0 64.6775 30.5058
    endloop
  endfacet
  facet normal -1 0 0
    outer loop
      vertex 0 60 31.5
      vertex 0 120 40
      vertex 0 62.391 31.2487
    endloop
  endfacet
  facet normal -1 0 0
    outer loop
      vertex 0 0 40
      vertex 0 60 31.5
      vertex 0 57.609 31.2487
    endloop
  endfacet
  facet normal -1 0 0
    outer loop
      vertex 0 38.5 20
      vertex 0 49.0629 23.5537
      vertex 0 48.563 21.2021
    endloop
  endfacet
  facet normal -1 0 0
    outer loop
      vertex 0 38.5 20
      vertex 0 50.0407 25.75
      vertex 0 49.0629 23.5537
    endloop
  endfacet
  facet normal -1 0 0
    outer loop
      vertex 0 38.5 20
      vertex 0 51.4538 27.695
      vertex 0 50.0407 25.75
    endloop
  endfacet
  facet normal -1 0 0
    outer loop
      vertex 0 0 40
      vertex 0 51.4538 27.695
      vertex 0 38.5 20
    endloop
  endfacet
  facet normal -1 0 0
    outer loop
      vertex 0 0 40
      vertex 0 38.5 20
      vertex 0 0 0
    endloop
  endfacet
  facet normal -1 0 0
    outer loop
      vertex 0 51.4538 27.695
      vertex 0 0 40
      vertex 0 53.2405 29.3037
    endloop
  endfacet
  facet normal -1 0 0
    outer loop
      vertex 0 60 31.5
      vertex 0 0 40
      vertex 0 120 40
    endloop
  endfacet
  facet normal -1 0 0
    outer loop
      vertex 0 55.3225 30.5058
      vertex 0 0 40
      vertex 0 57.609 31.2487
    endloop
  endfacet
  facet normal -1 0 0
    outer loop
      vertex 0 53.2405 29.3037
      vertex 0 0 40
      vertex 0 55.3225 30.5058
    endloop
  endfacet
  facet normal -0 0 1
    outer loop
      vertex 0 120 40
      vertex 3 50 40
      vertex 3 120 40
    endloop
  endfacet
  facet normal 0 0 1
    outer loop
      vertex 0 0 40
      vertex 3 50 40
      vertex 0 120 40
    endloop
  endfacet
  facet normal 0 0 1
    outer loop
      vertex 3 50 40
      vertex 0 0 40
      vertex 3 45 40
    endloop
  endfacet
  facet normal 0 0 1
    outer loop
      vertex 3 45 40
      vertex 0 0 40
      vertex 3 0 40
    endloop
  endfacet
  facet normal -0 0 1
    outer loop
      vertex 3 50 40
      vertex 20 45 40
      vertex 20 50 40
    endloop
  endfacet
  facet normal 0 0 1
    outer loop
      vertex 20 45 40
      vertex 3 50 40
      vertex 3 45 40
    endloop
  endfacet
  facet normal 1 -0 0
    outer loop
      vertex 20 45 40
      vertex 20 50 3
      vertex 20 50 40
    endloop
  endfacet
  facet normal 1 0 0
    outer loop
      vertex 20 50 3
      vertex 20 45 40
      vertex 20 45 3
    endloop
  endfacet
  facet normal 0 1 0
    outer loop
      vertex 20 50 40
      vertex 5 50 25.6586
      vertex 3 50 40
    endloop
  endfacet
  facet normal 0 1 -0
    outer loop
      vertex 20 50 3
      vertex 5 50 25.6586
      vertex 20 50 40
    endloop
  endfacet
  facet normal 0 1 0
    outer loop
      vertex 5 50 25.6586
      vertex 20 50 3
      vertex 5 50 14.3414
    endloop
  endfacet
  facet normal 0 1 0
    outer loop
      vertex 3 50 3
      vertex 5 50 14.3414
      vertex 20 50 3
    endloop
  endfacet
  facet normal 0 1 0
    outer loop
      vertex 5 50 14.3414
      vertex 3 50 3
      vertex 3 50 14.3414
    endloop
  endfacet
  facet normal 0 1 0
    outer loop
      vertex 3 50 40
      vertex 5 50 25.6586
      vertex 3 50 25.6586
    endloop
  endfacet
  facet normal 0 -1 0
    outer loop
      vertex 3 45 3
      vertex 20 45 40
      vertex 3 45 40
    endloop
  endfacet
  facet normal 0 -1 -0
    outer loop
      vertex 20 45 40
      vertex 3 45 3
      vertex 20 45 3
    endloop
  endfacet
  facet normal -1 0 0
    outer loop
      vertex 60 45 3
      vertex 60 50 40
      vertex 60 50 3
    endloop
  endfacet
  facet normal -1 -0 0
    outer loop
      vertex 60 50 40
      vertex 60 45 3
      vertex 60 45 40
    endloop
  endfacet
  facet normal 0 0 1
    outer loop
      vertex 80 50 40
      vertex 75 45 40
      vertex 80 25 40
    endloop
  endfacet
  facet normal -0 0 1
    outer loop
      vertex 60 50 40
      vertex 75 45 40
      vertex 80 50 40
    endloop
  endfacet
  facet normal 0 0 1
    outer loop
      vertex 75 45 40
      vertex 60 50 40
      vertex 60 45 40
    endloop
  endfacet
  facet normal 0 0 1
    outer loop
      vertex 80 25 40
      vertex 75 45 40
      vertex 75 25 40
    endloop
  endfacet
  facet normal 1 0 0
    outer loop
      vertex 80 50 40
      vertex 80 25 40
      vertex 80 50 3
    endloop
  endfacet
  facet normal 1 -0 0
    outer loop
      vertex 80 50 3
      vertex 80 120 0
      vertex 80 120 3
    endloop
  endfacet
  facet normal 1 0 0
    outer loop
      vertex 80 25 3
      vertex 80 50 3
      vertex 80 25 40
    endloop
  endfacet
  facet normal 1 0 0
    outer loop
      vertex 80 0 0
      vertex 80 50 3
      vertex 80 25 3
    endloop
  endfacet
  facet normal 1 0 0
    outer loop
      vertex 80 0 0
      vertex 80 25 3
      vertex 80 0 3
    endloop
  endfacet
  facet normal 1 0 0
    outer loop
      vertex 80 50 3
      vertex 80 0 0
      vertex 80 120 0
    endloop
  endfacet
  facet normal 0 1 -0
    outer loop
      vertex 80 50 3
      vertex 60 50 40
      vertex 80 50 40
    endloop
  endfacet
  facet normal 0 1 0
    outer loop
      vertex 60 50 40
      vertex 80 50 3
      vertex 60 50 3
    endloop
  endfacet
  facet normal 0 -1 0
    outer loop
      vertex 60 45 3
      vertex 75 45 40
      vertex 60 45 40
    endloop
  endfacet
  facet normal 0 -1 -0
    outer loop
      vertex 75 45 40
      vertex 60 45 3
      vertex 75 45 3
    endloop
  endfacet
  facet normal -1 0 0
    outer loop
      vertex 75 25 3
      vertex 75 45 40
      vertex 75 45 3
    endloop
  endfacet
  facet normal -1 -0 0
    outer loop
      vertex 75 45 40
      vertex 75 25 3
      vertex 75 25 40
    endloop
  endfacet
  facet normal 0 -1 0
    outer loop
      vertex 75 25 3
      vertex 80 25 40
      vertex 75 25 40
    endloop
  endfacet
  facet normal 0 -1 -0
    outer loop
      vertex 80 25 40
      vertex 75 25 3
      vertex 80 25 3
    endloop
  endfacet
  facet normal 0 -0.104529 0.994522
    outer loop
      vertex -10 62.391 8.7513
      vertex 3 60 8.5
      vertex 3 62.391 8.7513
    endloop
  endfacet
  facet normal 0 -0.104529 0.994522
    outer loop
      vertex 3 60 8.5
      vertex -10 62.391 8.7513
      vertex -10 60 8.5
    endloop
  endfacet
  facet normal 0 -0.104529 -0.994522
    outer loop
      vertex -10 60 31.5
      vertex -2.49771e-015 62.391 31.2487
      vertex -2.55351e-015 60 31.5
    endloop
  endfacet
  facet normal -0 -0.104529 -0.994522
    outer loop
      vertex -2.49771e-015 62.391 31.2487
      vertex -10 60 31.5
      vertex -10 62.391 31.2487
    endloop
  endfacet
  facet normal 0 -0.104529 -0.994522
    outer loop
      vertex 0 60 31.5
      vertex 3 62.391 31.2487
      vertex 3 60 31.5
    endloop
  endfacet
  facet normal -0 -0.104529 -0.994522
    outer loop
      vertex 3 62.391 31.2487
      vertex 0 60 31.5
      vertex 0 62.391 31.2487
    endloop
  endfacet
  facet normal 0 -1 0
    outer loop
      vertex 0 71.437 20
      vertex 3 71.437 21.2021
      vertex 0 71.437 21.2021
    endloop
  endfacet
  facet normal 0 -1 0
    outer loop
      vertex 3 71.437 18.7979
      vertex 0 71.437 20
      vertex 2.66915e-016 71.437 18.7979
    endloop
  endfacet
  facet normal 0 -1 0
    outer loop
      vertex 0 71.437 20
      vertex 3 71.437 18.7979
      vertex 3 71.437 21.2021
    endloop
  endfacet
  facet normal 0 1 0
    outer loop
      vertex 5 48.563 21.2021
      vertex 0 48.563 20
      vertex 0 48.563 21.2021
    endloop
  endfacet
  facet normal 0 1 -0
    outer loop
      vertex 5 48.563 18.7979
      vertex 0 48.563 20
      vertex 5 48.563 21.2021
    endloop
  endfacet
  facet normal 0 1 0
    outer loop
      vertex 0 48.563 20
      vertex 5 48.563 18.7979
      vertex 2.66915e-016 48.563 18.7979
    endloop
  endfacet
  facet normal 0 -0.66913 0.743145
    outer loop
      vertex -10 68.5462 12.305
      vertex 3 66.7595 10.6963
      vertex 3 68.5462 12.305
    endloop
  endfacet
  facet normal 0 -0.66913 0.743145
    outer loop
      vertex 3 66.7595 10.6963
      vertex -10 68.5462 12.305
      vertex -10 66.7595 10.6963
    endloop
  endfacet
  facet normal 0 -0.309016 0.951057
    outer loop
      vertex -10 64.6775 9.49423
      vertex 3 62.391 8.7513
      vertex 3 64.6775 9.49423
    endloop
  endfacet
  facet normal 0 -0.309016 0.951057
    outer loop
      vertex 3 62.391 8.7513
      vertex -10 64.6775 9.49423
      vertex -10 62.391 8.7513
    endloop
  endfacet
  facet normal 0 -0.809017 -0.587785
    outer loop
      vertex -10 69.9593 25.75
      vertex -1.70863e-015 68.5462 27.695
      vertex -10 68.5462 27.695
    endloop
  endfacet
  facet normal 0 -0.809017 -0.587785
    outer loop
      vertex -1.70863e-015 68.5462 27.695
      vertex -10 69.9593 25.75
      vertex -1.27676e-015 69.9593 25.75
    endloop
  endfacet
  facet normal 0 -0.809017 -0.587785
    outer loop
      vertex 0 69.9593 25.75
      vertex 3 68.5462 27.695
      vertex 0 68.5462 27.695
    endloop
  endfacet
  facet normal 0 -0.809017 -0.587785
    outer loop
      vertex 3 68.5462 27.695
      vertex 0 69.9593 25.75
      vertex 3 69.9593 25.75
    endloop
  endfacet
  facet normal 0 -0.978148 -0.20791
    outer loop
      vertex -10 71.3737 21.5
      vertex -7.89079e-016 70.9371 23.5537
      vertex -10 70.9371 23.5537
    endloop
  endfacet
  facet normal 0 -0.978148 -0.20791
    outer loop
      vertex -7.89079e-016 70.9371 23.5537
      vertex -10 71.3737 21.5
      vertex -3.33067e-016 71.3737 21.5
    endloop
  endfacet
  facet normal 0 -0.978147 -0.207913
    outer loop
      vertex 0 71.437 21.2021
      vertex 3 70.9371 23.5537
      vertex 0 70.9371 23.5537
    endloop
  endfacet
  facet normal 0 -0.978147 -0.207913
    outer loop
      vertex 3 70.9371 23.5537
      vertex 0 71.437 21.2021
      vertex 3 71.437 21.2021
    endloop
  endfacet
  facet normal -0 0.5 0.866025
    outer loop
      vertex -10 55.3225 9.49423
      vertex 3 53.2405 10.6963
      vertex 3 55.3225 9.49423
    endloop
  endfacet
  facet normal 0 0.5 0.866025
    outer loop
      vertex 3 53.2405 10.6963
      vertex -10 55.3225 9.49423
      vertex -10 53.2405 10.6963
    endloop
  endfacet
  facet normal 0 -0.500001 0.866025
    outer loop
      vertex -10 66.7595 10.6963
      vertex 3 64.6775 9.49423
      vertex 3 66.7595 10.6963
    endloop
  endfacet
  facet normal 0 -0.500001 0.866025
    outer loop
      vertex 3 64.6775 9.49423
      vertex -10 66.7595 10.6963
      vertex -10 64.6775 9.49423
    endloop
  endfacet
  facet normal 0 -0.913545 0.406737
    outer loop
      vertex -10 69.9593 14.25
      vertex 3 70.9371 16.4463
      vertex -10 70.9371 16.4463
    endloop
  endfacet
  facet normal 0 -0.913545 0.406737
    outer loop
      vertex 3 70.9371 16.4463
      vertex -10 69.9593 14.25
      vertex 3 69.9593 14.25
    endloop
  endfacet
  facet normal 0 -0.978148 0.20791
    outer loop
      vertex -10 71.3737 18.5
      vertex -10 70.9371 16.4463
      vertex 3.33067e-016 71.3737 18.5
    endloop
  endfacet
  facet normal 0 -0.978144 0.20793
    outer loop
      vertex 3.33067e-016 71.3737 18.5
      vertex 3 71.437 18.7979
      vertex 2.66915e-016 71.437 18.7979
    endloop
  endfacet
  facet normal 0 -0.978148 0.20791
    outer loop
      vertex 3 70.9371 16.4463
      vertex 3.33067e-016 71.3737 18.5
      vertex -10 70.9371 16.4463
    endloop
  endfacet
  facet normal 1.80446e-006 -0.978147 0.207913
    outer loop
      vertex 3.33067e-016 71.3737 18.5
      vertex 3 70.9371 16.4463
      vertex 3 71.437 18.7979
    endloop
  endfacet
  facet normal 0 -0.809017 0.587785
    outer loop
      vertex -10 68.5462 12.305
      vertex 3 69.9593 14.25
      vertex -10 69.9593 14.25
    endloop
  endfacet
  facet normal 0 -0.809017 0.587785
    outer loop
      vertex 3 69.9593 14.25
      vertex -10 68.5462 12.305
      vertex 3 68.5462 12.305
    endloop
  endfacet
  facet normal 0 -0.5 -0.866025
    outer loop
      vertex -10 64.6775 30.5058
      vertex -2.06584e-015 66.7595 29.3037
      vertex -2.33275e-015 64.6775 30.5058
    endloop
  endfacet
  facet normal -0 -0.5 -0.866025
    outer loop
      vertex -2.06584e-015 66.7595 29.3037
      vertex -10 64.6775 30.5058
      vertex -10 66.7595 29.3037
    endloop
  endfacet
  facet normal 0 -0.5 -0.866025
    outer loop
      vertex 0 64.6775 30.5058
      vertex 3 66.7595 29.3037
      vertex 3 64.6775 30.5058
    endloop
  endfacet
  facet normal -0 -0.5 -0.866025
    outer loop
      vertex 3 66.7595 29.3037
      vertex 0 64.6775 30.5058
      vertex 0 66.7595 29.3037
    endloop
  endfacet
  facet normal 0 -0.66913 -0.743145
    outer loop
      vertex -10 66.7595 29.3037
      vertex -1.70863e-015 68.5462 27.695
      vertex -2.06584e-015 66.7595 29.3037
    endloop
  endfacet
  facet normal -0 -0.66913 -0.743145
    outer loop
      vertex -1.70863e-015 68.5462 27.695
      vertex -10 66.7595 29.3037
      vertex -10 68.5462 27.695
    endloop
  endfacet
  facet normal 0 -0.66913 -0.743145
    outer loop
      vertex 0 66.7595 29.3037
      vertex 3 68.5462 27.695
      vertex 3 66.7595 29.3037
    endloop
  endfacet
  facet normal -0 -0.66913 -0.743145
    outer loop
      vertex 3 68.5462 27.695
      vertex 0 66.7595 29.3037
      vertex 0 68.5462 27.695
    endloop
  endfacet
  facet normal 0 -0.309017 -0.951057
    outer loop
      vertex -10 62.391 31.2487
      vertex -2.33275e-015 64.6775 30.5058
      vertex -2.49771e-015 62.391 31.2487
    endloop
  endfacet
  facet normal -0 -0.309017 -0.951057
    outer loop
      vertex -2.33275e-015 64.6775 30.5058
      vertex -10 62.391 31.2487
      vertex -10 64.6775 30.5058
    endloop
  endfacet
  facet normal 0 -0.309017 -0.951057
    outer loop
      vertex 0 62.391 31.2487
      vertex 3 64.6775 30.5058
      vertex 3 62.391 31.2487
    endloop
  endfacet
  facet normal -0 -0.309017 -0.951057
    outer loop
      vertex 3 64.6775 30.5058
      vertex 0 62.391 31.2487
      vertex 0 64.6775 30.5058
    endloop
  endfacet
  facet normal -1 0 0
    outer loop
      vertex 5 49.0629 16.4463
      vertex 5 50 25.6586
      vertex 5 50 14.3414
    endloop
  endfacet
  facet normal -1 0 0
    outer loop
      vertex 5 49.0629 16.4463
      vertex 5 49.0629 23.5537
      vertex 5 50 25.6586
    endloop
  endfacet
  facet normal -1 0 0
    outer loop
      vertex 5 48.563 18.7979
      vertex 5 49.0629 23.5537
      vertex 5 49.0629 16.4463
    endloop
  endfacet
  facet normal -1 0 0
    outer loop
      vertex 5 49.0629 23.5537
      vertex 5 48.563 18.7979
      vertex 5 48.563 21.2021
    endloop
  endfacet
  facet normal 0 -0.913545 -0.406737
    outer loop
      vertex -10 70.9371 23.5537
      vertex -1.27676e-015 69.9593 25.75
      vertex -10 69.9593 25.75
    endloop
  endfacet
  facet normal 0 -0.913545 -0.406737
    outer loop
      vertex -1.27676e-015 69.9593 25.75
      vertex -10 70.9371 23.5537
      vertex -7.89079e-016 70.9371 23.5537
    endloop
  endfacet
  facet normal 0 -0.913545 -0.406737
    outer loop
      vertex 0 70.9371 23.5537
      vertex 3 69.9593 25.75
      vertex 0 69.9593 25.75
    endloop
  endfacet
  facet normal 0 -0.913545 -0.406737
    outer loop
      vertex 3 69.9593 25.75
      vertex 0 70.9371 23.5537
      vertex 3 70.9371 23.5537
    endloop
  endfacet
  facet normal -1 0 0
    outer loop
      vertex -10 81.5 21.5
      vertex -10 73.0148 25
      vertex -10 81.5 25
    endloop
  endfacet
  facet normal -1 0 0
    outer loop
      vertex -10 71.3737 21.5
      vertex -10 73.0148 25
      vertex -10 81.5 21.5
    endloop
  endfacet
  facet normal -1 0 0
    outer loop
      vertex -10 70.9371 23.5537
      vertex -10 73.0148 25
      vertex -10 71.3737 21.5
    endloop
  endfacet
  facet normal -1 0 0
    outer loop
      vertex -10 69.9593 25.75
      vertex -10 73.0148 25
      vertex -10 70.9371 23.5537
    endloop
  endfacet
  facet normal -1 0 0
    outer loop
      vertex -10 73.0148 25
      vertex -10 69.9593 25.75
      vertex -10 72.1244 27
    endloop
  endfacet
  facet normal -1 -0 0
    outer loop
      vertex -10 72.1244 27
      vertex -10 69.9593 25.75
      vertex -10 70.404 29.3678
    endloop
  endfacet
  facet normal -1 0 0
    outer loop
      vertex -10 68.5462 27.695
      vertex -10 70.404 29.3678
      vertex -10 69.9593 25.75
    endloop
  endfacet
  facet normal -1 0 0
    outer loop
      vertex -10 68.5462 27.695
      vertex -10 68.229 31.3262
      vertex -10 70.404 29.3678
    endloop
  endfacet
  facet normal -1 0 0
    outer loop
      vertex -10 66.7595 29.3037
      vertex -10 68.229 31.3262
      vertex -10 68.5462 27.695
    endloop
  endfacet
  facet normal -1 0 0
    outer loop
      vertex -10 66.7595 29.3037
      vertex -10 65.6943 32.7896
      vertex -10 68.229 31.3262
    endloop
  endfacet
  facet normal -1 0 0
    outer loop
      vertex -10 64.6775 30.5058
      vertex -10 65.6943 32.7896
      vertex -10 66.7595 29.3037
    endloop
  endfacet
  facet normal -1 0 0
    outer loop
      vertex -10 64.6775 30.5058
      vertex -10 62.9108 33.6941
      vertex -10 65.6943 32.7896
    endloop
  endfacet
  facet normal -1 0 0
    outer loop
      vertex -10 62.391 31.2487
      vertex -10 62.9108 33.6941
      vertex -10 64.6775 30.5058
    endloop
  endfacet
  facet normal -1 0 0
    outer loop
      vertex -10 60 31.5
      vertex -10 62.9108 33.6941
      vertex -10 62.391 31.2487
    endloop
  endfacet
  facet normal -1 0 0
    outer loop
      vertex -10 60 31.5
      vertex -10 60 34
      vertex -10 62.9108 33.6941
    endloop
  endfacet
  facet normal -1 0 0
    outer loop
      vertex -10 57.609 31.2487
      vertex -10 60 34
      vertex -10 60 31.5
    endloop
  endfacet
  facet normal -1 0 0
    outer loop
      vertex -10 57.609 31.2487
      vertex -10 57.0892 33.6941
      vertex -10 60 34
    endloop
  endfacet
  facet normal -1 0 0
    outer loop
      vertex -10 55.3225 30.5058
      vertex -10 57.0892 33.6941
      vertex -10 57.609 31.2487
    endloop
  endfacet
  facet normal -1 0 0
    outer loop
      vertex -10 55.3225 30.5058
      vertex -10 54.3057 32.7896
      vertex -10 57.0892 33.6941
    endloop
  endfacet
  facet normal -1 0 0
    outer loop
      vertex -10 53.2405 29.3037
      vertex -10 54.3057 32.7896
      vertex -10 55.3225 30.5058
    endloop
  endfacet
  facet normal -1 0 0
    outer loop
      vertex -10 53.2405 29.3037
      vertex -10 51.771 31.3262
      vertex -10 54.3057 32.7896
    endloop
  endfacet
  facet normal -1 0 0
    outer loop
      vertex -10 51.4538 27.695
      vertex -10 51.771 31.3262
      vertex -10 53.2405 29.3037
    endloop
  endfacet
  facet normal -1 0 0
    outer loop
      vertex -10 49.596 29.3678
      vertex -10 51.4538 27.695
      vertex -10 50.0407 25.75
    endloop
  endfacet
  facet normal -1 0 0
    outer loop
      vertex -10 51.4538 27.695
      vertex -10 49.596 29.3678
      vertex -10 51.771 31.3262
    endloop
  endfacet
  facet normal -1 0 0
    outer loop
      vertex -10 46.9852 25
      vertex -10 50.0407 25.75
      vertex -10 49.0629 23.5537
    endloop
  endfacet
  facet normal -1 0 0
    outer loop
      vertex -10 46.9852 25
      vertex -10 49.0629 23.5537
      vertex -10 48.6263 21.5
    endloop
  endfacet
  facet normal -1 0 0
    outer loop
      vertex -10 50.0407 25.75
      vertex -10 47.8756 27
      vertex -10 49.596 29.3678
    endloop
  endfacet
  facet normal -1 -0 0
    outer loop
      vertex -10 50.0407 25.75
      vertex -10 46.9852 25
      vertex -10 47.8756 27
    endloop
  endfacet
  facet normal -1 0 0
    outer loop
      vertex -10 38.5 21.5
      vertex -10 46.9852 25
      vertex -10 48.6263 21.5
    endloop
  endfacet
  facet normal -1 -0 0
    outer loop
      vertex -10 46.9852 25
      vertex -10 38.5 21.5
      vertex -10 38.5 25
    endloop
  endfacet
  facet normal -1 0 0
    outer loop
      vertex -10 73.0148 15
      vertex -10 81.5 18.5
      vertex -10 81.5 15
    endloop
  endfacet
  facet normal -1 0 0
    outer loop
      vertex -10 73.0148 15
      vertex -10 71.3737 18.5
      vertex -10 81.5 18.5
    endloop
  endfacet
  facet normal -1 0 0
    outer loop
      vertex -10 69.9593 14.25
      vertex -10 73.0148 15
      vertex -10 72.1244 13
    endloop
  endfacet
  facet normal -1 0 0
    outer loop
      vertex -10 73.0148 15
      vertex -10 70.9371 16.4463
      vertex -10 71.3737 18.5
    endloop
  endfacet
  facet normal -1 0 0
    outer loop
      vertex -10 69.9593 14.25
      vertex -10 72.1244 13
      vertex -10 70.404 10.6322
    endloop
  endfacet
  facet normal -1 -0 0
    outer loop
      vertex -10 73.0148 15
      vertex -10 69.9593 14.25
      vertex -10 70.9371 16.4463
    endloop
  endfacet
  facet normal -1 0 0
    outer loop
      vertex -10 70.404 10.6322
      vertex -10 68.5462 12.305
      vertex -10 69.9593 14.25
    endloop
  endfacet
  facet normal -1 0 0
    outer loop
      vertex -10 68.229 8.67376
      vertex -10 68.5462 12.305
      vertex -10 70.404 10.6322
    endloop
  endfacet
  facet normal -1 0 0
    outer loop
      vertex -10 68.229 8.67376
      vertex -10 66.7595 10.6963
      vertex -10 68.5462 12.305
    endloop
  endfacet
  facet normal -1 0 0
    outer loop
      vertex -10 65.6943 7.21036
      vertex -10 66.7595 10.6963
      vertex -10 68.229 8.67376
    endloop
  endfacet
  facet normal -1 0 0
    outer loop
      vertex -10 65.6943 7.21036
      vertex -10 64.6775 9.49423
      vertex -10 66.7595 10.6963
    endloop
  endfacet
  facet normal -1 0 0
    outer loop
      vertex -10 62.9108 6.30593
      vertex -10 64.6775 9.49423
      vertex -10 65.6943 7.21036
    endloop
  endfacet
  facet normal -1 0 0
    outer loop
      vertex -10 62.9108 6.30593
      vertex -10 62.391 8.7513
      vertex -10 64.6775 9.49423
    endloop
  endfacet
  facet normal -1 0 0
    outer loop
      vertex -10 60 6
      vertex -10 62.391 8.7513
      vertex -10 62.9108 6.30593
    endloop
  endfacet
  facet normal -1 0 0
    outer loop
      vertex -10 60 6
      vertex -10 60 8.5
      vertex -10 62.391 8.7513
    endloop
  endfacet
  facet normal -1 0 0
    outer loop
      vertex -10 60 6
      vertex -10 57.609 8.7513
      vertex -10 60 8.5
    endloop
  endfacet
  facet normal -1 0 0
    outer loop
      vertex -10 57.0892 6.30593
      vertex -10 57.609 8.7513
      vertex -10 60 6
    endloop
  endfacet
  facet normal -1 0 0
    outer loop
      vertex -10 57.0892 6.30593
      vertex -10 55.3225 9.49423
      vertex -10 57.609 8.7513
    endloop
  endfacet
  facet normal -1 0 0
    outer loop
      vertex -10 54.3057 7.21036
      vertex -10 55.3225 9.49423
      vertex -10 57.0892 6.30593
    endloop
  endfacet
  facet normal -1 0 0
    outer loop
      vertex -10 54.3057 7.21036
      vertex -10 53.2405 10.6963
      vertex -10 55.3225 9.49423
    endloop
  endfacet
  facet normal -1 0 0
    outer loop
      vertex -10 51.771 8.67376
      vertex -10 53.2405 10.6963
      vertex -10 54.3057 7.21036
    endloop
  endfacet
  facet normal -1 0 0
    outer loop
      vertex -10 51.771 8.67376
      vertex -10 51.4538 12.305
      vertex -10 53.2405 10.6963
    endloop
  endfacet
  facet normal -1 0 0
    outer loop
      vertex -10 49.596 10.6322
      vertex -10 51.4538 12.305
      vertex -10 51.771 8.67376
    endloop
  endfacet
  facet normal -1 -0 0
    outer loop
      vertex -10 51.4538 12.305
      vertex -10 49.596 10.6322
      vertex -10 50.0407 14.25
    endloop
  endfacet
  facet normal -1 0 0
    outer loop
      vertex -10 47.8756 13
      vertex -10 50.0407 14.25
      vertex -10 49.596 10.6322
    endloop
  endfacet
  facet normal -1 0 0
    outer loop
      vertex -10 46.9852 15
      vertex -10 50.0407 14.25
      vertex -10 47.8756 13
    endloop
  endfacet
  facet normal -1 0 0
    outer loop
      vertex -10 50.0407 14.25
      vertex -10 46.9852 15
      vertex -10 49.0629 16.4463
    endloop
  endfacet
  facet normal -1 -0 0
    outer loop
      vertex -10 49.0629 16.4463
      vertex -10 46.9852 15
      vertex -10 48.6263 18.5
    endloop
  endfacet
  facet normal -1 0 0
    outer loop
      vertex -10 38.5 18.5
      vertex -10 46.9852 15
      vertex -10 38.5 15
    endloop
  endfacet
  facet normal -1 0 0
    outer loop
      vertex -10 46.9852 15
      vertex -10 38.5 18.5
      vertex -10 48.6263 18.5
    endloop
  endfacet
  facet normal 0 0.809017 0.587785
    outer loop
      vertex 3 51.4538 12.305
      vertex -10 50.0407 14.25
      vertex 3 50.0407 14.25
    endloop
  endfacet
  facet normal 0 0.809017 0.587785
    outer loop
      vertex -10 50.0407 14.25
      vertex 3 51.4538 12.305
      vertex -10 51.4538 12.305
    endloop
  endfacet
  facet normal -0 0.66913 0.743145
    outer loop
      vertex -10 53.2405 10.6963
      vertex 3 51.4538 12.305
      vertex 3 53.2405 10.6963
    endloop
  endfacet
  facet normal 0 0.66913 0.743145
    outer loop
      vertex 3 51.4538 12.305
      vertex -10 53.2405 10.6963
      vertex -10 51.4538 12.305
    endloop
  endfacet
  facet normal -0 0.309017 0.951057
    outer loop
      vertex -10 57.609 8.7513
      vertex 3 55.3225 9.49423
      vertex 3 57.609 8.7513
    endloop
  endfacet
  facet normal 0 0.309017 0.951057
    outer loop
      vertex 3 55.3225 9.49423
      vertex -10 57.609 8.7513
      vertex -10 55.3225 9.49423
    endloop
  endfacet
  facet normal -0 0.104529 0.994522
    outer loop
      vertex -10 60 8.5
      vertex 3 57.609 8.7513
      vertex 3 60 8.5
    endloop
  endfacet
  facet normal 0 0.104529 0.994522
    outer loop
      vertex 3 57.609 8.7513
      vertex -10 60 8.5
      vertex -10 57.609 8.7513
    endloop
  endfacet
  facet normal 0 0.809017 -0.587785
    outer loop
      vertex -1.27676e-015 50.0407 25.75
      vertex -10 51.4538 27.695
      vertex -1.70863e-015 51.4538 27.695
    endloop
  endfacet
  facet normal 0 0.809017 -0.587785
    outer loop
      vertex -10 51.4538 27.695
      vertex -1.27676e-015 50.0407 25.75
      vertex -10 50.0407 25.75
    endloop
  endfacet
  facet normal 0 0.809017 -0.587785
    outer loop
      vertex 3 50.0407 25.75
      vertex 0 51.4538 27.695
      vertex 3 51.4538 27.695
    endloop
  endfacet
  facet normal 0 0.809017 -0.587785
    outer loop
      vertex 0 51.4538 27.695
      vertex 3 50.0407 25.75
      vertex 0 50.0407 25.75
    endloop
  endfacet
  facet normal 0 0.5 -0.866026
    outer loop
      vertex -10 53.2405 29.3037
      vertex -2.33275e-015 55.3225 30.5058
      vertex -2.06584e-015 53.2405 29.3037
    endloop
  endfacet
  facet normal 0 0.5 -0.866026
    outer loop
      vertex -2.33275e-015 55.3225 30.5058
      vertex -10 53.2405 29.3037
      vertex -10 55.3225 30.5058
    endloop
  endfacet
  facet normal 0 0.5 -0.866026
    outer loop
      vertex 0 53.2405 29.3037
      vertex 3 55.3225 30.5058
      vertex 3 53.2405 29.3037
    endloop
  endfacet
  facet normal 0 0.5 -0.866026
    outer loop
      vertex 3 55.3225 30.5058
      vertex 0 53.2405 29.3037
      vertex 0 55.3225 30.5058
    endloop
  endfacet
  facet normal 0 0.978148 -0.207911
    outer loop
      vertex 5 48.563 21.2021
      vertex 0 49.0629 23.5537
      vertex 5 49.0629 23.5537
    endloop
  endfacet
  facet normal 0 0.978148 -0.207911
    outer loop
      vertex 0 49.0629 23.5537
      vertex 5 48.563 21.2021
      vertex 0 48.563 21.2021
    endloop
  endfacet
  facet normal 0 0.978148 -0.207912
    outer loop
      vertex -3.33067e-016 48.6263 21.5
      vertex -10 49.0629 23.5537
      vertex -7.89079e-016 49.0629 23.5537
    endloop
  endfacet
  facet normal 0 0.978148 -0.207912
    outer loop
      vertex -10 49.0629 23.5537
      vertex -3.33067e-016 48.6263 21.5
      vertex -10 48.6263 21.5
    endloop
  endfacet
  facet normal 0 0.913545 -0.406737
    outer loop
      vertex -7.89079e-016 49.0629 23.5537
      vertex -10 50.0407 25.75
      vertex -1.27676e-015 50.0407 25.75
    endloop
  endfacet
  facet normal 0 0.913545 -0.406737
    outer loop
      vertex -10 50.0407 25.75
      vertex -7.89079e-016 49.0629 23.5537
      vertex -10 49.0629 23.5537
    endloop
  endfacet
  facet normal 0 0.913545 -0.406737
    outer loop
      vertex 5 50 25.6586
      vertex 5 49.0629 23.5537
      vertex 3 50 25.6586
    endloop
  endfacet
  facet normal 0 0.913538 -0.406754
    outer loop
      vertex 3 50 25.6586
      vertex 0 50.0407 25.75
      vertex 3 50.0407 25.75
    endloop
  endfacet
  facet normal 0 0.913545 -0.406737
    outer loop
      vertex 0 49.0629 23.5537
      vertex 3 50 25.6586
      vertex 5 49.0629 23.5537
    endloop
  endfacet
  facet normal 5.99968e-007 0.913545 -0.406737
    outer loop
      vertex 3 50 25.6586
      vertex 0 49.0629 23.5537
      vertex 0 50.0407 25.75
    endloop
  endfacet
  facet normal 0 0.66913 -0.743145
    outer loop
      vertex -10 51.4538 27.695
      vertex -2.06584e-015 53.2405 29.3037
      vertex -1.70863e-015 51.4538 27.695
    endloop
  endfacet
  facet normal 0 0.66913 -0.743145
    outer loop
      vertex -2.06584e-015 53.2405 29.3037
      vertex -10 51.4538 27.695
      vertex -10 53.2405 29.3037
    endloop
  endfacet
  facet normal 0 0.66913 -0.743145
    outer loop
      vertex 0 51.4538 27.695
      vertex 3 53.2405 29.3037
      vertex 3 51.4538 27.695
    endloop
  endfacet
  facet normal 0 0.66913 -0.743145
    outer loop
      vertex 3 53.2405 29.3037
      vertex 0 51.4538 27.695
      vertex 0 53.2405 29.3037
    endloop
  endfacet
  facet normal 0 0.309017 -0.951056
    outer loop
      vertex -10 55.3225 30.5058
      vertex -2.49771e-015 57.609 31.2487
      vertex -2.33275e-015 55.3225 30.5058
    endloop
  endfacet
  facet normal 0 0.309017 -0.951056
    outer loop
      vertex -2.49771e-015 57.609 31.2487
      vertex -10 55.3225 30.5058
      vertex -10 57.609 31.2487
    endloop
  endfacet
  facet normal 0 0.309017 -0.951056
    outer loop
      vertex 0 55.3225 30.5058
      vertex 3 57.609 31.2487
      vertex 3 55.3225 30.5058
    endloop
  endfacet
  facet normal 0 0.309017 -0.951056
    outer loop
      vertex 3 57.609 31.2487
      vertex 0 55.3225 30.5058
      vertex 0 57.609 31.2487
    endloop
  endfacet
  facet normal 0 0.104529 -0.994522
    outer loop
      vertex -10 57.609 31.2487
      vertex -2.55351e-015 60 31.5
      vertex -2.49771e-015 57.609 31.2487
    endloop
  endfacet
  facet normal 0 0.104529 -0.994522
    outer loop
      vertex -2.55351e-015 60 31.5
      vertex -10 57.609 31.2487
      vertex -10 60 31.5
    endloop
  endfacet
  facet normal 0 0.104529 -0.994522
    outer loop
      vertex 0 57.609 31.2487
      vertex 3 60 31.5
      vertex 3 57.609 31.2487
    endloop
  endfacet
  facet normal 0 0.104529 -0.994522
    outer loop
      vertex 3 60 31.5
      vertex 0 57.609 31.2487
      vertex 0 60 31.5
    endloop
  endfacet
  facet normal -0 0.913545 0.406737
    outer loop
      vertex 3 50 14.3414
      vertex 5 49.0629 16.4463
      vertex 5 50 14.3414
    endloop
  endfacet
  facet normal 0 0.913545 0.406737
    outer loop
      vertex 5 49.0629 16.4463
      vertex 3 50 14.3414
      vertex -10 49.0629 16.4463
    endloop
  endfacet
  facet normal -0 0.913538 0.406754
    outer loop
      vertex -10 50.0407 14.25
      vertex 3 50 14.3414
      vertex 3 50.0407 14.25
    endloop
  endfacet
  facet normal 1.38454e-007 0.913545 0.406737
    outer loop
      vertex 3 50 14.3414
      vertex -10 50.0407 14.25
      vertex -10 49.0629 16.4463
    endloop
  endfacet
  facet normal 0 0.978149 0.207906
    outer loop
      vertex 5 48.563 18.7979
      vertex 3.33067e-016 48.6263 18.5
      vertex 2.66915e-016 48.563 18.7979
    endloop
  endfacet
  facet normal -3.15312e-007 0.978148 0.207911
    outer loop
      vertex 5 49.0629 16.4463
      vertex 3.33067e-016 48.6263 18.5
      vertex 5 48.563 18.7979
    endloop
  endfacet
  facet normal -0 0.978148 0.207912
    outer loop
      vertex -10 49.0629 16.4463
      vertex 3.33067e-016 48.6263 18.5
      vertex 5 49.0629 16.4463
    endloop
  endfacet
  facet normal 0 0.978148 0.207912
    outer loop
      vertex 3.33067e-016 48.6263 18.5
      vertex -10 49.0629 16.4463
      vertex -10 48.6263 18.5
    endloop
  endfacet
  facet normal 0 0 -1
    outer loop
      vertex -1 38.5 21.5
      vertex -10 38.5 21.5
      vertex -1 46.0845 21.5
    endloop
  endfacet
  facet normal 0 0 -1
    outer loop
      vertex -1 46.0845 21.5
      vertex -3.33067e-016 48.6263 21.5
      vertex -3.33067e-016 46.0845 21.5
    endloop
  endfacet
  facet normal 0 0 -1
    outer loop
      vertex -10 48.6263 21.5
      vertex -1 46.0845 21.5
      vertex -10 38.5 21.5
    endloop
  endfacet
  facet normal 0 0 -1
    outer loop
      vertex -1 46.0845 21.5
      vertex -10 48.6263 21.5
      vertex -3.33067e-016 48.6263 21.5
    endloop
  endfacet
  facet normal 0 0 -1
    outer loop
      vertex -3.33067e-016 71.3737 21.5
      vertex -1 73.9155 21.5
      vertex -3.33067e-016 73.9155 21.5
    endloop
  endfacet
  facet normal 0 0 -1
    outer loop
      vertex -10 71.3737 21.5
      vertex -1 73.9155 21.5
      vertex -3.33067e-016 71.3737 21.5
    endloop
  endfacet
  facet normal 0 0 -1
    outer loop
      vertex -10 81.5 21.5
      vertex -1 73.9155 21.5
      vertex -10 71.3737 21.5
    endloop
  endfacet
  facet normal 0 0 -1
    outer loop
      vertex -1 73.9155 21.5
      vertex -10 81.5 21.5
      vertex -1 81.5 21.5
    endloop
  endfacet
  facet normal 1 2.00575e-022 2.22045e-016
    outer loop
      vertex -7.89079e-016 70.9371 23.5537
      vertex -9.60618e-016 73.3148 24.3262
      vertex -1.55431e-015 72.1244 27
    endloop
  endfacet
  facet normal 1 1.97956e-022 2.22045e-016
    outer loop
      vertex -3.33067e-016 71.3737 21.5
      vertex -9.60618e-016 73.3148 24.3262
      vertex -7.89079e-016 70.9371 23.5537
    endloop
  endfacet
  facet normal 1 0 2.22045e-016
    outer loop
      vertex -9.60618e-016 73.3148 24.3262
      vertex -3.33067e-016 71.3737 21.5
      vertex -3.33067e-016 73.9155 21.5
    endloop
  endfacet
  facet normal 1 -3.6375e-023 2.22045e-016
    outer loop
      vertex -1.27676e-015 69.9593 25.75
      vertex -1.55431e-015 72.1244 27
      vertex -2.08008e-015 70.404 29.3678
    endloop
  endfacet
  facet normal 1 0 2.22045e-016
    outer loop
      vertex -1.55431e-015 72.1244 27
      vertex -1.27676e-015 69.9593 25.75
      vertex -7.89079e-016 70.9371 23.5537
    endloop
  endfacet
  facet normal 1 -5.92618e-023 2.22045e-016
    outer loop
      vertex -2.08008e-015 70.404 29.3678
      vertex -1.70863e-015 68.5462 27.695
      vertex -1.27676e-015 69.9593 25.75
    endloop
  endfacet
  facet normal 1 -4.86793e-023 2.22045e-016
    outer loop
      vertex -2.51493e-015 68.229 31.3262
      vertex -1.70863e-015 68.5462 27.695
      vertex -2.08008e-015 70.404 29.3678
    endloop
  endfacet
  facet normal 1 1.8563e-022 2.22045e-016
    outer loop
      vertex -2.51493e-015 68.229 31.3262
      vertex -2.06584e-015 66.7595 29.3037
      vertex -1.70863e-015 68.5462 27.695
    endloop
  endfacet
  facet normal 1 8.51698e-023 2.22045e-016
    outer loop
      vertex -2.83987e-015 65.6943 32.7896
      vertex -2.06584e-015 66.7595 29.3037
      vertex -2.51493e-015 68.229 31.3262
    endloop
  endfacet
  facet normal 1 -1.61817e-022 2.22045e-016
    outer loop
      vertex -2.83987e-015 65.6943 32.7896
      vertex -2.33275e-015 64.6775 30.5058
      vertex -2.06584e-015 66.7595 29.3037
    endloop
  endfacet
  facet normal 1 0 2.22045e-016
    outer loop
      vertex -3.04069e-015 62.9108 33.6941
      vertex -2.33275e-015 64.6775 30.5058
      vertex -2.83987e-015 65.6943 32.7896
    endloop
  endfacet
  facet normal 1 1.12949e-022 2.22045e-016
    outer loop
      vertex -3.04069e-015 62.9108 33.6941
      vertex -2.49771e-015 62.391 31.2487
      vertex -2.33275e-015 64.6775 30.5058
    endloop
  endfacet
  facet normal 1 8.0063e-023 2.22045e-016
    outer loop
      vertex -3.10862e-015 60 34
      vertex -2.49771e-015 62.391 31.2487
      vertex -3.04069e-015 62.9108 33.6941
    endloop
  endfacet
  facet normal 1 0 2.22045e-016
    outer loop
      vertex -3.10862e-015 60 34
      vertex -2.55351e-015 60 31.5
      vertex -2.49771e-015 62.391 31.2487
    endloop
  endfacet
  facet normal 1 0 2.22045e-016
    outer loop
      vertex -3.10862e-015 60 34
      vertex -2.49771e-015 57.609 31.2487
      vertex -2.55351e-015 60 31.5
    endloop
  endfacet
  facet normal 1 -8.0063e-023 2.22045e-016
    outer loop
      vertex -3.04069e-015 57.0892 33.6941
      vertex -2.49771e-015 57.609 31.2487
      vertex -3.10862e-015 60 34
    endloop
  endfacet
  facet normal 1 -1.12949e-022 2.22045e-016
    outer loop
      vertex -3.04069e-015 57.0892 33.6941
      vertex -2.33275e-015 55.3225 30.5058
      vertex -2.49771e-015 57.609 31.2487
    endloop
  endfacet
  facet normal 1 0 2.22045e-016
    outer loop
      vertex -2.83987e-015 54.3057 32.7896
      vertex -2.33275e-015 55.3225 30.5058
      vertex -3.04069e-015 57.0892 33.6941
    endloop
  endfacet
  facet normal 1 1.61817e-022 2.22045e-016
    outer loop
      vertex -2.83987e-015 54.3057 32.7896
      vertex -2.06584e-015 53.2405 29.3037
      vertex -2.33275e-015 55.3225 30.5058
    endloop
  endfacet
  facet normal 1 -8.51699e-023 2.22045e-016
    outer loop
      vertex -2.51493e-015 51.771 31.3262
      vertex -2.06584e-015 53.2405 29.3037
      vertex -2.83987e-015 54.3057 32.7896
    endloop
  endfacet
  facet normal 1 -1.8563e-022 2.22045e-016
    outer loop
      vertex -2.51493e-015 51.771 31.3262
      vertex -1.70863e-015 51.4538 27.695
      vertex -2.06584e-015 53.2405 29.3037
    endloop
  endfacet
  facet normal 1 4.86793e-023 2.22045e-016
    outer loop
      vertex -2.08008e-015 49.596 29.3678
      vertex -1.70863e-015 51.4538 27.695
      vertex -2.51493e-015 51.771 31.3262
    endloop
  endfacet
  facet normal 1 0 2.22045e-016
    outer loop
      vertex -1.70863e-015 51.4538 27.695
      vertex -2.08008e-015 49.596 29.3678
      vertex -1.27676e-015 50.0407 25.75
    endloop
  endfacet
  facet normal 1 0 2.22045e-016
    outer loop
      vertex -1.55431e-015 47.8756 27
      vertex -1.27676e-015 50.0407 25.75
      vertex -2.08008e-015 49.596 29.3678
    endloop
  endfacet
  facet normal 1 4.42826e-023 2.22045e-016
    outer loop
      vertex -1.27676e-015 50.0407 25.75
      vertex -1.55431e-015 47.8756 27
      vertex -7.89079e-016 49.0629 23.5537
    endloop
  endfacet
  facet normal 1 -1.78094e-022 2.22045e-016
    outer loop
      vertex -9.60618e-016 46.6852 24.3262
      vertex -7.89079e-016 49.0629 23.5537
      vertex -1.55431e-015 47.8756 27
    endloop
  endfacet
  facet normal 1 -1.97956e-022 2.22045e-016
    outer loop
      vertex -7.89079e-016 49.0629 23.5537
      vertex -9.60618e-016 46.6852 24.3262
      vertex -3.33067e-016 48.6263 21.5
    endloop
  endfacet
  facet normal 1 0 2.22045e-016
    outer loop
      vertex -3.33067e-016 48.6263 21.5
      vertex -9.60618e-016 46.6852 24.3262
      vertex -3.33067e-016 46.0845 21.5
    endloop
  endfacet
  facet normal -1 0 -2.22044e-016
    outer loop
      vertex 3.33067e-016 38.5 18.5
      vertex 2.66915e-016 48.563 18.7979
      vertex 3.33067e-016 48.6263 18.5
    endloop
  endfacet
  facet normal -1 2.10433e-023 -2.22045e-016
    outer loop
      vertex 0 38.5 20
      vertex 2.66915e-016 48.563 18.7979
      vertex 3.33067e-016 38.5 18.5
    endloop
  endfacet
  facet normal -1 0 -2.22045e-016
    outer loop
      vertex 2.66915e-016 48.563 18.7979
      vertex 0 38.5 20
      vertex 0 48.563 20
    endloop
  endfacet
  facet normal -1 -2.10433e-023 -2.22045e-016
    outer loop
      vertex 3.33067e-016 81.5 18.5
      vertex 2.66915e-016 71.437 18.7979
      vertex 0 81.5 20
    endloop
  endfacet
  facet normal -1 0 -2.22044e-016
    outer loop
      vertex 2.66915e-016 71.437 18.7979
      vertex 3.33067e-016 81.5 18.5
      vertex 3.33067e-016 71.3737 18.5
    endloop
  endfacet
  facet normal -1 -0 -2.22045e-016
    outer loop
      vertex 0 81.5 20
      vertex 2.66915e-016 71.437 18.7979
      vertex 0 71.437 20
    endloop
  endfacet
  facet normal 0 0 1
    outer loop
      vertex 3.33067e-016 48.6263 18.5
      vertex 0 46.0845 18.5
      vertex 3.33067e-016 38.5 18.5
    endloop
  endfacet
  facet normal 0 0 1
    outer loop
      vertex 3.33067e-016 48.6263 18.5
      vertex -1 46.0845 18.5
      vertex 0 46.0845 18.5
    endloop
  endfacet
  facet normal -0 0 1
    outer loop
      vertex -10 48.6263 18.5
      vertex -1 46.0845 18.5
      vertex 3.33067e-016 48.6263 18.5
    endloop
  endfacet
  facet normal 0 0 1
    outer loop
      vertex -10 38.5 18.5
      vertex -1 46.0845 18.5
      vertex -10 48.6263 18.5
    endloop
  endfacet
  facet normal 0 0 1
    outer loop
      vertex -1 46.0845 18.5
      vertex -10 38.5 18.5
      vertex -1 38.5 18.5
    endloop
  endfacet
  facet normal 0 0 1
    outer loop
      vertex 3.33067e-016 38.5 18.5
      vertex 0 46.0845 18.5
      vertex 0 38.5 18.5
    endloop
  endfacet
  facet normal 0 0 1
    outer loop
      vertex -1 81.5 18.5
      vertex -10 81.5 18.5
      vertex -1 73.9155 18.5
    endloop
  endfacet
  facet normal 0 0 1
    outer loop
      vertex 0 73.9155 18.5
      vertex 3.33067e-016 81.5 18.5
      vertex 0 81.5 18.5
    endloop
  endfacet
  facet normal 0 0 1
    outer loop
      vertex 3.33067e-016 81.5 18.5
      vertex 0 73.9155 18.5
      vertex 3.33067e-016 71.3737 18.5
    endloop
  endfacet
  facet normal -0 0 1
    outer loop
      vertex -1 73.9155 18.5
      vertex 3.33067e-016 71.3737 18.5
      vertex 0 73.9155 18.5
    endloop
  endfacet
  facet normal 0 0 1
    outer loop
      vertex -10 71.3737 18.5
      vertex -1 73.9155 18.5
      vertex -10 81.5 18.5
    endloop
  endfacet
  facet normal 0 0 1
    outer loop
      vertex -1 73.9155 18.5
      vertex -10 71.3737 18.5
      vertex 3.33067e-016 71.3737 18.5
    endloop
  endfacet
  facet normal 0 1 -0
    outer loop
      vertex -1 81.5 15
      vertex -10 81.5 18.5
      vertex -1 81.5 18.5
    endloop
  endfacet
  facet normal 0 1 0
    outer loop
      vertex -10 81.5 18.5
      vertex -1 81.5 15
      vertex -10 81.5 15
    endloop
  endfacet
  facet normal 0 1 -0
    outer loop
      vertex -1 81.5 21.5
      vertex -10 81.5 25
      vertex -1 81.5 25
    endloop
  endfacet
  facet normal 0 1 0
    outer loop
      vertex -10 81.5 25
      vertex -1 81.5 21.5
      vertex -10 81.5 21.5
    endloop
  endfacet
  facet normal 0 -1 0
    outer loop
      vertex 3.33067e-016 81.5 18.5
      vertex 0 81.5 20
      vertex 0 81.5 18.5
    endloop
  endfacet
  facet normal 0 -1 0
    outer loop
      vertex -10 38.5 21.5
      vertex -1 38.5 25
      vertex -10 38.5 25
    endloop
  endfacet
  facet normal 0 -1 -0
    outer loop
      vertex -1 38.5 25
      vertex -10 38.5 21.5
      vertex -1 38.5 21.5
    endloop
  endfacet
  facet normal 0 -1 0
    outer loop
      vertex -10 38.5 15
      vertex -1 38.5 18.5
      vertex -10 38.5 18.5
    endloop
  endfacet
  facet normal 0 -1 -0
    outer loop
      vertex -1 38.5 18.5
      vertex -10 38.5 15
      vertex -1 38.5 15
    endloop
  endfacet
  facet normal 0 1 0
    outer loop
      vertex 0 38.5 20
      vertex 3.33067e-016 38.5 18.5
      vertex 0 38.5 18.5
    endloop
  endfacet
  facet normal 0 0.104529 -0.994522
    outer loop
      vertex -10 60 6
      vertex 0 62.9108 6.30593
      vertex 0 60 6
    endloop
  endfacet
  facet normal 0 0.104529 -0.994522
    outer loop
      vertex 0 62.9108 6.30593
      vertex -10 60 6
      vertex -10 62.9108 6.30593
    endloop
  endfacet
  facet normal -0 0.104529 0.994522
    outer loop
      vertex -10 62.9108 33.6941
      vertex -3.10862e-015 60 34
      vertex -3.04069e-015 62.9108 33.6941
    endloop
  endfacet
  facet normal 0 0.104529 0.994522
    outer loop
      vertex -3.10862e-015 60 34
      vertex -10 62.9108 33.6941
      vertex -10 60 34
    endloop
  endfacet
  facet normal 0 0.809017 -0.587786
    outer loop
      vertex 0 70.404 10.6322
      vertex -10 72.1244 13
      vertex 0 72.1244 13
    endloop
  endfacet
  facet normal 0 0.809017 -0.587786
    outer loop
      vertex -10 72.1244 13
      vertex 0 70.404 10.6322
      vertex -10 70.404 10.6322
    endloop
  endfacet
  facet normal -0 0.66913 0.743145
    outer loop
      vertex -10 70.404 29.3678
      vertex -2.51493e-015 68.229 31.3262
      vertex -2.08008e-015 70.404 29.3678
    endloop
  endfacet
  facet normal 0 0.66913 0.743145
    outer loop
      vertex -2.51493e-015 68.229 31.3262
      vertex -10 70.404 29.3678
      vertex -10 68.229 31.3262
    endloop
  endfacet
  facet normal 0 0.913547 0.406734
    outer loop
      vertex -1.55431e-015 72.1244 27
      vertex -1 73.0148 25
      vertex -10 72.1244 27
    endloop
  endfacet
  facet normal -2.78105e-006 0.913546 0.406735
    outer loop
      vertex -9.60618e-016 73.3148 24.3262
      vertex -1 73.0148 25
      vertex -1.55431e-015 72.1244 27
    endloop
  endfacet
  facet normal 0 0.913545 0.406738
    outer loop
      vertex -1 73.0148 25
      vertex -9.60618e-016 73.3148 24.3262
      vertex -1 73.3148 24.3262
    endloop
  endfacet
  facet normal 0 0.913547 0.406734
    outer loop
      vertex -10 72.1244 27
      vertex -1 73.0148 25
      vertex -10 73.0148 25
    endloop
  endfacet
  facet normal 0 0.499999 -0.866026
    outer loop
      vertex -10 65.6943 7.21036
      vertex 0 68.229 8.67376
      vertex 0 65.6943 7.21036
    endloop
  endfacet
  facet normal 0 0.499999 -0.866026
    outer loop
      vertex 0 68.229 8.67376
      vertex -10 65.6943 7.21036
      vertex -10 68.229 8.67376
    endloop
  endfacet
  facet normal 0 0.309017 -0.951057
    outer loop
      vertex -10 62.9108 6.30593
      vertex 0 65.6943 7.21036
      vertex 0 62.9108 6.30593
    endloop
  endfacet
  facet normal 0 0.309017 -0.951057
    outer loop
      vertex 0 65.6943 7.21036
      vertex -10 62.9108 6.30593
      vertex -10 65.6943 7.21036
    endloop
  endfacet
  facet normal 0 0.669131 -0.743145
    outer loop
      vertex -10 68.229 8.67376
      vertex 0 70.404 10.6322
      vertex 0 68.229 8.67376
    endloop
  endfacet
  facet normal 0 0.669131 -0.743145
    outer loop
      vertex 0 70.404 10.6322
      vertex -10 68.229 8.67376
      vertex -10 70.404 10.6322
    endloop
  endfacet
  facet normal 0 0.978147 -0.207913
    outer loop
      vertex 0 73.3148 15.6738
      vertex -1 73.9155 18.5
      vertex 0 73.9155 18.5
    endloop
  endfacet
  facet normal 0 0.978147 -0.207913
    outer loop
      vertex -1 73.9155 18.5
      vertex 0 73.3148 15.6738
      vertex -1 73.3148 15.6738
    endloop
  endfacet
  facet normal 0 0.913548 -0.40673
    outer loop
      vertex 0 73.3148 15.6738
      vertex -1 73.0148 15
      vertex -1 73.3148 15.6738
    endloop
  endfacet
  facet normal 3.89861e-006 0.913546 -0.406735
    outer loop
      vertex 0 72.1244 13
      vertex -1 73.0148 15
      vertex 0 73.3148 15.6738
    endloop
  endfacet
  facet normal 0 0.913545 -0.406737
    outer loop
      vertex -10 72.1244 13
      vertex -1 73.0148 15
      vertex 0 72.1244 13
    endloop
  endfacet
  facet normal 0 0.913545 -0.406737
    outer loop
      vertex -1 73.0148 15
      vertex -10 72.1244 13
      vertex -10 73.0148 15
    endloop
  endfacet
  facet normal -0 0.499999 0.866026
    outer loop
      vertex -10 68.229 31.3262
      vertex -2.83987e-015 65.6943 32.7896
      vertex -2.51493e-015 68.229 31.3262
    endloop
  endfacet
  facet normal 0 0.499999 0.866026
    outer loop
      vertex -2.83987e-015 65.6943 32.7896
      vertex -10 68.229 31.3262
      vertex -10 65.6943 32.7896
    endloop
  endfacet
  facet normal -0 0.309017 0.951057
    outer loop
      vertex -10 65.6943 32.7896
      vertex -3.04069e-015 62.9108 33.6941
      vertex -2.83987e-015 65.6943 32.7896
    endloop
  endfacet
  facet normal 0 0.309017 0.951057
    outer loop
      vertex -3.04069e-015 62.9108 33.6941
      vertex -10 65.6943 32.7896
      vertex -10 62.9108 33.6941
    endloop
  endfacet
  facet normal 0 0.809017 0.587786
    outer loop
      vertex -1.55431e-015 72.1244 27
      vertex -10 70.404 29.3678
      vertex -2.08008e-015 70.404 29.3678
    endloop
  endfacet
  facet normal 0 0.809017 0.587786
    outer loop
      vertex -10 70.404 29.3678
      vertex -1.55431e-015 72.1244 27
      vertex -10 72.1244 27
    endloop
  endfacet
  facet normal 0 0.978147 0.207913
    outer loop
      vertex -3.33067e-016 73.9155 21.5
      vertex -1 73.3148 24.3262
      vertex -9.60618e-016 73.3148 24.3262
    endloop
  endfacet
  facet normal 0 0.978147 0.207913
    outer loop
      vertex -1 73.3148 24.3262
      vertex -3.33067e-016 73.9155 21.5
      vertex -1 73.9155 21.5
    endloop
  endfacet
  facet normal 0 -0.104529 -0.994522
    outer loop
      vertex -10 57.0892 6.30593
      vertex 0 60 6
      vertex 0 57.0892 6.30593
    endloop
  endfacet
  facet normal -0 -0.104529 -0.994522
    outer loop
      vertex 0 60 6
      vertex -10 57.0892 6.30593
      vertex -10 60 6
    endloop
  endfacet
  facet normal 0 -0.104529 0.994522
    outer loop
      vertex -10 60 34
      vertex -3.04069e-015 57.0892 33.6941
      vertex -3.10862e-015 60 34
    endloop
  endfacet
  facet normal 0 -0.104529 0.994522
    outer loop
      vertex -3.04069e-015 57.0892 33.6941
      vertex -10 60 34
      vertex -10 57.0892 33.6941
    endloop
  endfacet
  facet normal 0 -0.5 -0.866025
    outer loop
      vertex -10 51.771 8.67376
      vertex 0 54.3057 7.21036
      vertex 0 51.771 8.67376
    endloop
  endfacet
  facet normal -0 -0.5 -0.866025
    outer loop
      vertex 0 54.3057 7.21036
      vertex -10 51.771 8.67376
      vertex -10 54.3057 7.21036
    endloop
  endfacet
  facet normal 0 -0.978147 -0.207913
    outer loop
      vertex -1 46.6852 15.6738
      vertex 0 46.0845 18.5
      vertex -1 46.0845 18.5
    endloop
  endfacet
  facet normal 0 -0.978147 -0.207913
    outer loop
      vertex 0 46.0845 18.5
      vertex -1 46.6852 15.6738
      vertex 0 46.6852 15.6738
    endloop
  endfacet
  facet normal 0 -0.809017 -0.587786
    outer loop
      vertex -10 49.596 10.6322
      vertex 0 47.8756 13
      vertex -10 47.8756 13
    endloop
  endfacet
  facet normal 0 -0.809017 -0.587786
    outer loop
      vertex 0 47.8756 13
      vertex -10 49.596 10.6322
      vertex 0 49.596 10.6322
    endloop
  endfacet
  facet normal 0 -0.309017 -0.951057
    outer loop
      vertex -10 54.3057 7.21036
      vertex 0 57.0892 6.30593
      vertex 0 54.3057 7.21036
    endloop
  endfacet
  facet normal -0 -0.309017 -0.951057
    outer loop
      vertex 0 57.0892 6.30593
      vertex -10 54.3057 7.21036
      vertex -10 57.0892 6.30593
    endloop
  endfacet
  facet normal 0 -0.66913 0.743145
    outer loop
      vertex -10 51.771 31.3262
      vertex -2.08008e-015 49.596 29.3678
      vertex -2.51493e-015 51.771 31.3262
    endloop
  endfacet
  facet normal 0 -0.66913 0.743145
    outer loop
      vertex -2.08008e-015 49.596 29.3678
      vertex -10 51.771 31.3262
      vertex -10 49.596 29.3678
    endloop
  endfacet
  facet normal 0 -0.5 0.866025
    outer loop
      vertex -10 54.3057 32.7896
      vertex -2.51493e-015 51.771 31.3262
      vertex -2.83987e-015 54.3057 32.7896
    endloop
  endfacet
  facet normal 0 -0.5 0.866025
    outer loop
      vertex -2.51493e-015 51.771 31.3262
      vertex -10 54.3057 32.7896
      vertex -10 51.771 31.3262
    endloop
  endfacet
  facet normal 0 -0.309017 0.951057
    outer loop
      vertex -10 57.0892 33.6941
      vertex -2.83987e-015 54.3057 32.7896
      vertex -3.04069e-015 57.0892 33.6941
    endloop
  endfacet
  facet normal 0 -0.309017 0.951057
    outer loop
      vertex -2.83987e-015 54.3057 32.7896
      vertex -10 57.0892 33.6941
      vertex -10 54.3057 32.7896
    endloop
  endfacet
  facet normal 0 -0.913546 -0.406734
    outer loop
      vertex -1 46.9852 15
      vertex 0 46.6852 15.6738
      vertex -1 46.6852 15.6738
    endloop
  endfacet
  facet normal 1.29187e-006 -0.913546 -0.406736
    outer loop
      vertex -1 46.9852 15
      vertex 0 47.8756 13
      vertex 0 46.6852 15.6738
    endloop
  endfacet
  facet normal -0 -0.913545 -0.406737
    outer loop
      vertex 0 47.8756 13
      vertex -1 46.9852 15
      vertex -10 47.8756 13
    endloop
  endfacet
  facet normal 0 -0.913545 -0.406737
    outer loop
      vertex -10 46.9852 15
      vertex -10 47.8756 13
      vertex -1 46.9852 15
    endloop
  endfacet
  facet normal 0 -0.669131 -0.743145
    outer loop
      vertex -10 49.596 10.6322
      vertex 0 51.771 8.67376
      vertex 0 49.596 10.6322
    endloop
  endfacet
  facet normal -0 -0.669131 -0.743145
    outer loop
      vertex 0 51.771 8.67376
      vertex -10 49.596 10.6322
      vertex -10 51.771 8.67376
    endloop
  endfacet
  facet normal 0 -0.809017 0.587786
    outer loop
      vertex -10 47.8756 27
      vertex -2.08008e-015 49.596 29.3678
      vertex -10 49.596 29.3678
    endloop
  endfacet
  facet normal 0 -0.809017 0.587786
    outer loop
      vertex -2.08008e-015 49.596 29.3678
      vertex -10 47.8756 27
      vertex -1.55431e-015 47.8756 27
    endloop
  endfacet
  facet normal 0 -0.913545 0.406737
    outer loop
      vertex -1 46.9852 25
      vertex -10 47.8756 27
      vertex -10 46.9852 25
    endloop
  endfacet
  facet normal 0 -0.913545 0.406737
    outer loop
      vertex -10 47.8756 27
      vertex -1 46.9852 25
      vertex -1.55431e-015 47.8756 27
    endloop
  endfacet
  facet normal 0 -0.913547 0.406734
    outer loop
      vertex -9.60618e-016 46.6852 24.3262
      vertex -1 46.9852 25
      vertex -1 46.6852 24.3262
    endloop
  endfacet
  facet normal 1.58202e-006 -0.913546 0.406736
    outer loop
      vertex -1 46.9852 25
      vertex -9.60618e-016 46.6852 24.3262
      vertex -1.55431e-015 47.8756 27
    endloop
  endfacet
  facet normal 0 -0.978147 0.207913
    outer loop
      vertex -1 46.0845 21.5
      vertex -9.60618e-016 46.6852 24.3262
      vertex -1 46.6852 24.3262
    endloop
  endfacet
  facet normal 0 -0.978147 0.207913
    outer loop
      vertex -9.60618e-016 46.6852 24.3262
      vertex -1 46.0845 21.5
      vertex -3.33067e-016 46.0845 21.5
    endloop
  endfacet
  facet normal -0 0 1
    outer loop
      vertex -10 46.9852 25
      vertex -1 38.5 25
      vertex -1 46.9852 25
    endloop
  endfacet
  facet normal 0 0 1
    outer loop
      vertex -1 38.5 25
      vertex -10 46.9852 25
      vertex -10 38.5 25
    endloop
  endfacet
  facet normal -0 0 1
    outer loop
      vertex -10 81.5 25
      vertex -1 73.0148 25
      vertex -1 81.5 25
    endloop
  endfacet
  facet normal 0 0 1
    outer loop
      vertex -1 73.0148 25
      vertex -10 81.5 25
      vertex -10 73.0148 25
    endloop
  endfacet
  facet normal 1 -0 0
    outer loop
      vertex -1 38.5 25
      vertex -1 46.6852 24.3262
      vertex -1 46.9852 25
    endloop
  endfacet
  facet normal 1 0 0
    outer loop
      vertex -1 38.5 25
      vertex -1 46.0845 21.5
      vertex -1 46.6852 24.3262
    endloop
  endfacet
  facet normal 1 0 0
    outer loop
      vertex -1 46.0845 21.5
      vertex -1 38.5 25
      vertex -1 38.5 21.5
    endloop
  endfacet
  facet normal 1 0 0
    outer loop
      vertex -1 38.5 15
      vertex -1 46.0845 18.5
      vertex -1 38.5 18.5
    endloop
  endfacet
  facet normal 1 0 0
    outer loop
      vertex -1 46.0845 18.5
      vertex -1 38.5 15
      vertex -1 46.6852 15.6738
    endloop
  endfacet
  facet normal 1 0 0
    outer loop
      vertex -1 46.6852 15.6738
      vertex -1 38.5 15
      vertex -1 46.9852 15
    endloop
  endfacet
  facet normal 1 -0 0
    outer loop
      vertex -1 73.9155 18.5
      vertex -1 81.5 15
      vertex -1 81.5 18.5
    endloop
  endfacet
  facet normal 1 -0 0
    outer loop
      vertex -1 73.3148 15.6738
      vertex -1 81.5 15
      vertex -1 73.9155 18.5
    endloop
  endfacet
  facet normal 1 0 0
    outer loop
      vertex -1 81.5 15
      vertex -1 73.3148 15.6738
      vertex -1 73.0148 15
    endloop
  endfacet
  facet normal 1 0 0
    outer loop
      vertex -1 81.5 25
      vertex -1 73.9155 21.5
      vertex -1 81.5 21.5
    endloop
  endfacet
  facet normal 1 0 0
    outer loop
      vertex -1 81.5 25
      vertex -1 73.3148 24.3262
      vertex -1 73.9155 21.5
    endloop
  endfacet
  facet normal 1 0 -0
    outer loop
      vertex -1 73.3148 24.3262
      vertex -1 81.5 25
      vertex -1 73.0148 25
    endloop
  endfacet
  facet normal 0 0 -1
    outer loop
      vertex -10 38.5 15
      vertex -1 46.9852 15
      vertex -1 38.5 15
    endloop
  endfacet
  facet normal -0 0 -1
    outer loop
      vertex -1 46.9852 15
      vertex -10 38.5 15
      vertex -10 46.9852 15
    endloop
  endfacet
  facet normal 0 0 -1
    outer loop
      vertex -10 73.0148 15
      vertex -1 81.5 15
      vertex -1 73.0148 15
    endloop
  endfacet
  facet normal -0 0 -1
    outer loop
      vertex -1 81.5 15
      vertex -10 73.0148 15
      vertex -10 81.5 15
    endloop
  endfacet
  facet normal 0 0 1
    outer loop
      vertex 75 45 3
      vertex 60 45 3
      vertex 75 25 3
    endloop
  endfacet
  facet normal -0 0 1
    outer loop
      vertex 75 25 3
      vertex 80 0 3
      vertex 80 25 3
    endloop
  endfacet
  facet normal -0 0 1
    outer loop
      vertex 20 45 3
      vertex 75 25 3
      vertex 60 45 3
    endloop
  endfacet
  facet normal 0 0 1
    outer loop
      vertex 20 45 3
      vertex 60 45 3
      vertex 20 50 3
    endloop
  endfacet
  facet normal 0 0 1
    outer loop
      vertex 75 25 3
      vertex 20 45 3
      vertex 3 0 3
    endloop
  endfacet
  facet normal 0 0 1
    outer loop
      vertex 3 0 3
      vertex 20 45 3
      vertex 3 45 3
    endloop
  endfacet
  facet normal 0 0 1
    outer loop
      vertex 75 25 3
      vertex 3 0 3
      vertex 80 0 3
    endloop
  endfacet
  facet normal 0 0 1
    outer loop
      vertex 12.4271 84.7634 3
      vertex 61.5729 84.7634 3
      vertex 12.4271 115.237 3
    endloop
  endfacet
  facet normal 0 0 1
    outer loop
      vertex 61.5729 84.7634 3
      vertex 12.4271 84.7634 3
      vertex 13 83 3
    endloop
  endfacet
  facet normal -0 0 1
    outer loop
      vertex 10.9271 114.147 3
      vertex 12.4271 84.7634 3
      vertex 12.4271 115.237 3
    endloop
  endfacet
  facet normal 0 0 1
    outer loop
      vertex 10.9271 114.147 3
      vertex 10.9271 85.8532 3
      vertex 12.4271 84.7634 3
    endloop
  endfacet
  facet normal -0 0 1
    outer loop
      vertex 9.07295 114.147 3
      vertex 10.9271 85.8532 3
      vertex 10.9271 114.147 3
    endloop
  endfacet
  facet normal 0 0 1
    outer loop
      vertex 9.07295 114.147 3
      vertex 9.07295 85.8532 3
      vertex 10.9271 85.8532 3
    endloop
  endfacet
  facet normal 0 0 1
    outer loop
      vertex 7.57295 115.237 3
      vertex 9.07295 85.8532 3
      vertex 9.07295 114.147 3
    endloop
  endfacet
  facet normal 0 0 1
    outer loop
      vertex 7.57295 115.237 3
      vertex 7.57295 84.7634 3
      vertex 9.07295 85.8532 3
    endloop
  endfacet
  facet normal 0 0 1
    outer loop
      vertex 3 120 3
      vertex 7.57295 115.237 3
      vertex 7 117 3
    endloop
  endfacet
  facet normal 0 0 1
    outer loop
      vertex 7.57295 115.237 3
      vertex 3 120 3
      vertex 7.57295 84.7634 3
    endloop
  endfacet
  facet normal 0 0 1
    outer loop
      vertex 66.427 84.7634 3
      vertex 80 120 3
      vertex 66.427 115.237 3
    endloop
  endfacet
  facet normal 0 0 1
    outer loop
      vertex 80 120 3
      vertex 66.427 84.7634 3
      vertex 67 83 3
    endloop
  endfacet
  facet normal -0 0 1
    outer loop
      vertex 64.927 114.147 3
      vertex 66.427 84.7634 3
      vertex 66.427 115.237 3
    endloop
  endfacet
  facet normal 0 0 1
    outer loop
      vertex 64.927 114.147 3
      vertex 64.927 85.8532 3
      vertex 66.427 84.7634 3
    endloop
  endfacet
  facet normal -0 0 1
    outer loop
      vertex 63.0729 114.147 3
      vertex 64.927 85.8532 3
      vertex 64.927 114.147 3
    endloop
  endfacet
  facet normal 0 0 1
    outer loop
      vertex 63.0729 114.147 3
      vertex 63.0729 85.8532 3
      vertex 64.927 85.8532 3
    endloop
  endfacet
  facet normal 0 0 1
    outer loop
      vertex 61.5729 115.237 3
      vertex 63.0729 85.8532 3
      vertex 63.0729 114.147 3
    endloop
  endfacet
  facet normal 0 0 1
    outer loop
      vertex 61.5729 115.237 3
      vertex 61.5729 84.7634 3
      vertex 63.0729 85.8532 3
    endloop
  endfacet
  facet normal -0 0 1
    outer loop
      vertex 13 117 3
      vertex 61.5729 115.237 3
      vertex 61 117 3
    endloop
  endfacet
  facet normal 0 0 1
    outer loop
      vertex 12.4271 115.237 3
      vertex 61.5729 115.237 3
      vertex 13 117 3
    endloop
  endfacet
  facet normal 0 0 1
    outer loop
      vertex 66.427 115.237 3
      vertex 80 120 3
      vertex 67 117 3
    endloop
  endfacet
  facet normal 0 0 1
    outer loop
      vertex 80 120 3
      vertex 66.427 118.763 3
      vertex 67 117 3
    endloop
  endfacet
  facet normal 0 0 1
    outer loop
      vertex 80 120 3
      vertex 64.927 119.853 3
      vertex 66.427 118.763 3
    endloop
  endfacet
  facet normal 0 0 1
    outer loop
      vertex 80 120 3
      vertex 63.0729 119.853 3
      vertex 64.927 119.853 3
    endloop
  endfacet
  facet normal 0 0 1
    outer loop
      vertex 61.5729 84.7634 3
      vertex 13 83 3
      vertex 61 83 3
    endloop
  endfacet
  facet normal 0 0 1
    outer loop
      vertex 60 50 3
      vertex 20 50 3
      vertex 60 45 3
    endloop
  endfacet
  facet normal 0 0 1
    outer loop
      vertex 12.4271 81.2366 3
      vertex 61 83 3
      vertex 13 83 3
    endloop
  endfacet
  facet normal 0 0 1
    outer loop
      vertex 13 117 3
      vertex 61 117 3
      vertex 61.5729 118.763 3
    endloop
  endfacet
  facet normal 0 0 1
    outer loop
      vertex 61.5729 115.237 3
      vertex 12.4271 115.237 3
      vertex 61.5729 84.7634 3
    endloop
  endfacet
  facet normal 0 0 1
    outer loop
      vertex 12.4271 118.763 3
      vertex 61.5729 118.763 3
      vertex 63.0729 119.853 3
    endloop
  endfacet
  facet normal 0 0 1
    outer loop
      vertex 61.5729 118.763 3
      vertex 12.4271 118.763 3
      vertex 13 117 3
    endloop
  endfacet
  facet normal 0 0 1
    outer loop
      vertex 63.0729 119.853 3
      vertex 10.9271 119.853 3
      vertex 12.4271 118.763 3
    endloop
  endfacet
  facet normal 0 0 1
    outer loop
      vertex 80 120 3
      vertex 10.9271 119.853 3
      vertex 63.0729 119.853 3
    endloop
  endfacet
  facet normal -0 0 1
    outer loop
      vertex 3 120 3
      vertex 10.9271 119.853 3
      vertex 80 120 3
    endloop
  endfacet
  facet normal 0 0 1
    outer loop
      vertex 7.57295 84.7634 3
      vertex 3 120 3
      vertex 7 83 3
    endloop
  endfacet
  facet normal 0 0 1
    outer loop
      vertex 7.57295 118.763 3
      vertex 3 120 3
      vertex 7 117 3
    endloop
  endfacet
  facet normal 0 0 1
    outer loop
      vertex 9.07295 119.853 3
      vertex 3 120 3
      vertex 7.57295 118.763 3
    endloop
  endfacet
  facet normal 0 0 1
    outer loop
      vertex 10.9271 119.853 3
      vertex 3 120 3
      vertex 9.07295 119.853 3
    endloop
  endfacet
  facet normal 0 0 1
    outer loop
      vertex 80 120 3
      vertex 67 83 3
      vertex 80 50 3
    endloop
  endfacet
  facet normal -0 0 1
    outer loop
      vertex 66.427 81.2366 3
      vertex 80 50 3
      vertex 67 83 3
    endloop
  endfacet
  facet normal -0 0 1
    outer loop
      vertex 64.927 80.1468 3
      vertex 80 50 3
      vertex 66.427 81.2366 3
    endloop
  endfacet
  facet normal 0 0 1
    outer loop
      vertex 60 50 3
      vertex 64.927 80.1468 3
      vertex 63.0729 80.1468 3
    endloop
  endfacet
  facet normal 0 0 1
    outer loop
      vertex 60 50 3
      vertex 63.0729 80.1468 3
      vertex 61.5729 81.2366 3
    endloop
  endfacet
  facet normal 0 0 1
    outer loop
      vertex 64.927 80.1468 3
      vertex 60 50 3
      vertex 80 50 3
    endloop
  endfacet
  facet normal 0 0 1
    outer loop
      vertex 60 50 3
      vertex 61.5729 81.2366 3
      vertex 61 83 3
    endloop
  endfacet
  facet normal 0 -0 1
    outer loop
      vertex 20 50 3
      vertex 61 83 3
      vertex 12.4271 81.2366 3
    endloop
  endfacet
  facet normal 0 0 1
    outer loop
      vertex 61 83 3
      vertex 20 50 3
      vertex 60 50 3
    endloop
  endfacet
  facet normal -0 0 1
    outer loop
      vertex 10.9271 80.1468 3
      vertex 20 50 3
      vertex 12.4271 81.2366 3
    endloop
  endfacet
  facet normal 0 0 1
    outer loop
      vertex 3 50 3
      vertex 10.9271 80.1468 3
      vertex 9.07295 80.1468 3
    endloop
  endfacet
  facet normal 0 0 1
    outer loop
      vertex 3 50 3
      vertex 9.07295 80.1468 3
      vertex 7.57295 81.2366 3
    endloop
  endfacet
  facet normal 0 0 1
    outer loop
      vertex 10.9271 80.1468 3
      vertex 3 50 3
      vertex 20 50 3
    endloop
  endfacet
  facet normal 0 0 1
    outer loop
      vertex 7 83 3
      vertex 3 50 3
      vertex 7.57295 81.2366 3
    endloop
  endfacet
  facet normal 0 0 1
    outer loop
      vertex 3 50 3
      vertex 7 83 3
      vertex 3 120 3
    endloop
  endfacet
  facet normal 0 -1 0
    outer loop
      vertex 0 0 40
      vertex 3 0 3
      vertex 3 0 40
    endloop
  endfacet
  facet normal 0 -1 0
    outer loop
      vertex 0 0 0
      vertex 3 0 3
      vertex 0 0 40
    endloop
  endfacet
  facet normal 0 -1 0
    outer loop
      vertex 80 0 0
      vertex 3 0 3
      vertex 0 0 0
    endloop
  endfacet
  facet normal 0 -1 0
    outer loop
      vertex 3 0 3
      vertex 80 0 0
      vertex 80 0 3
    endloop
  endfacet
  facet normal 0 1 0
    outer loop
      vertex 80 120 3
      vertex 80 120 0
      vertex 3 120 3
    endloop
  endfacet
  facet normal 0 1 -0
    outer loop
      vertex 3 120 3
      vertex 0 120 40
      vertex 3 120 40
    endloop
  endfacet
  facet normal 0 1 0
    outer loop
      vertex 3 120 3
      vertex 0 120 0
      vertex 0 120 40
    endloop
  endfacet
  facet normal 0 1 0
    outer loop
      vertex 0 120 0
      vertex 3 120 3
      vertex 80 120 0
    endloop
  endfacet
  facet normal 1 -0 0
    outer loop
      vertex 3 0 40
      vertex 3 45 3
      vertex 3 45 40
    endloop
  endfacet
  facet normal 1 0 0
    outer loop
      vertex 3 45 3
      vertex 3 0 40
      vertex 3 0 3
    endloop
  endfacet
  facet normal 1 0 0
    outer loop
      vertex 3 120 40
      vertex 3 71.437 21.2021
      vertex 3 120 3
    endloop
  endfacet
  facet normal 1 0 0
    outer loop
      vertex 3 120 40
      vertex 3 70.9371 23.5537
      vertex 3 71.437 21.2021
    endloop
  endfacet
  facet normal 1 0 0
    outer loop
      vertex 3 120 40
      vertex 3 69.9593 25.75
      vertex 3 70.9371 23.5537
    endloop
  endfacet
  facet normal 1 0 0
    outer loop
      vertex 3 120 40
      vertex 3 68.5462 27.695
      vertex 3 69.9593 25.75
    endloop
  endfacet
  facet normal 1 0 0
    outer loop
      vertex 3 120 40
      vertex 3 66.7595 29.3037
      vertex 3 68.5462 27.695
    endloop
  endfacet
  facet normal 1 0 0
    outer loop
      vertex 3 120 40
      vertex 3 64.6775 30.5058
      vertex 3 66.7595 29.3037
    endloop
  endfacet
  facet normal 1 -0 0
    outer loop
      vertex 3 50 40
      vertex 3 64.6775 30.5058
      vertex 3 120 40
    endloop
  endfacet
  facet normal 1 0 0
    outer loop
      vertex 3 64.6775 30.5058
      vertex 3 50 40
      vertex 3 62.391 31.2487
    endloop
  endfacet
  facet normal 1 0 0
    outer loop
      vertex 3 62.391 31.2487
      vertex 3 50 40
      vertex 3 60 31.5
    endloop
  endfacet
  facet normal 1 0 0
    outer loop
      vertex 3 60 31.5
      vertex 3 50 40
      vertex 3 57.609 31.2487
    endloop
  endfacet
  facet normal 1 0 0
    outer loop
      vertex 3 50 40
      vertex 3 55.3225 30.5058
      vertex 3 57.609 31.2487
    endloop
  endfacet
  facet normal 1 0 0
    outer loop
      vertex 3 50 40
      vertex 3 53.2405 29.3037
      vertex 3 55.3225 30.5058
    endloop
  endfacet
  facet normal 1 0 0
    outer loop
      vertex 3 50 40
      vertex 3 51.4538 27.695
      vertex 3 53.2405 29.3037
    endloop
  endfacet
  facet normal 1 0 0
    outer loop
      vertex 3 50 40
      vertex 3 50.0407 25.75
      vertex 3 51.4538 27.695
    endloop
  endfacet
  facet normal 1 0 0
    outer loop
      vertex 3 50.0407 25.75
      vertex 3 50 40
      vertex 3 50 25.6586
    endloop
  endfacet
  facet normal 1 -0 0
    outer loop
      vertex 3 71.437 18.7979
      vertex 3 120 3
      vertex 3 71.437 21.2021
    endloop
  endfacet
  facet normal 1 -0 0
    outer loop
      vertex 3 70.9371 16.4463
      vertex 3 120 3
      vertex 3 71.437 18.7979
    endloop
  endfacet
  facet normal 1 -0 0
    outer loop
      vertex 3 69.9593 14.25
      vertex 3 120 3
      vertex 3 70.9371 16.4463
    endloop
  endfacet
  facet normal 1 -0 0
    outer loop
      vertex 3 68.5462 12.305
      vertex 3 120 3
      vertex 3 69.9593 14.25
    endloop
  endfacet
  facet normal 1 -0 0
    outer loop
      vertex 3 66.7595 10.6963
      vertex 3 120 3
      vertex 3 68.5462 12.305
    endloop
  endfacet
  facet normal 1 -0 0
    outer loop
      vertex 3 64.6775 9.49423
      vertex 3 120 3
      vertex 3 66.7595 10.6963
    endloop
  endfacet
  facet normal 1 -0 0
    outer loop
      vertex 3 62.391 8.7513
      vertex 3 120 3
      vertex 3 64.6775 9.49423
    endloop
  endfacet
  facet normal 1 0 0
    outer loop
      vertex 3 50 3
      vertex 3 62.391 8.7513
      vertex 3 60 8.5
    endloop
  endfacet
  facet normal 1 0 0
    outer loop
      vertex 3 62.391 8.7513
      vertex 3 50 3
      vertex 3 120 3
    endloop
  endfacet
  facet normal 1 0 0
    outer loop
      vertex 3 57.609 8.7513
      vertex 3 50 3
      vertex 3 60 8.5
    endloop
  endfacet
  facet normal 1 0 0
    outer loop
      vertex 3 55.3225 9.49423
      vertex 3 50 3
      vertex 3 57.609 8.7513
    endloop
  endfacet
  facet normal 1 0 0
    outer loop
      vertex 3 53.2405 10.6963
      vertex 3 50 3
      vertex 3 55.3225 9.49423
    endloop
  endfacet
  facet normal 1 0 0
    outer loop
      vertex 3 51.4538 12.305
      vertex 3 50 3
      vertex 3 53.2405 10.6963
    endloop
  endfacet
  facet normal 1 0 0
    outer loop
      vertex 3 50.0407 14.25
      vertex 3 50 3
      vertex 3 51.4538 12.305
    endloop
  endfacet
  facet normal 1 0 0
    outer loop
      vertex 3 50 3
      vertex 3 50.0407 14.25
      vertex 3 50 14.3414
    endloop
  endfacet
endsolid OpenSCAD_Model
